<svg width="65" height="65" fill="none" xmlns="http://www.w3.org/2000/svg"><rect width="65" height="65" rx="5" fill="url(#paint0_linear_13_185)" fill-opacity=".8"/><rect width="65" height="65" rx="5" fill="url(#paint1_linear_13_185)" fill-opacity=".2"/><g clip-path="url(#clip0_13_185)"><path d="M34.323 23.02H20.469c-.604 0-1.094-.49-1.094-1.093V19.01a4.014 4.014 0 014.01-4.01h8.021a4.014 4.014 0 014.01 4.01v2.917c0 .604-.49 1.094-1.093 1.094z" fill="#A36C22"/><path d="M35.781 47.083h-16.77A4.014 4.014 0 0115 43.073v-18.23a4.014 4.014 0 014.01-4.01h16.771a4.014 4.014 0 014.01 4.01v18.23a4.014 4.014 0 01-4.01 4.01z" fill="#ECEFF1"/><path d="M25.573 39.792H15V28.125h10.573a4.014 4.014 0 014.01 4.01v3.646a4.014 4.014 0 01-4.01 4.01z" fill="#A36C22"/><path d="M27.396 15h-4.01a4.014 4.014 0 00-4.011 4.01v1.823h8.02V15z" fill="#6F2205"/><path d="M27.396 39.353a3.99 3.99 0 01-1.823.439H15v3.28a4.014 4.014 0 004.01 4.011h8.386v-7.73zm0-18.52H19.01a4.014 4.014 0 00-4.01 4.01v3.282h10.573a3.97 3.97 0 011.823.439v-7.73z" fill="#CDD0D2"/><path d="M25.573 28.125H15v11.667h10.573a3.99 3.99 0 001.823-.44V28.565a3.97 3.97 0 00-1.823-.439z" fill="#6F2205"/><path d="M41.98 32.5c-4.42 0-8.022 3.617-8.022 8.05 0 2.275 1.08 4.52 2.917 6.096v.802c0 1.4 1.152 2.552 2.552 2.552h5.104c1.4 0 2.552-1.152 2.552-2.552v-.802C48.921 45.07 50 42.825 50 40.55c0-4.433-3.602-8.05-8.02-8.05z" fill="#EACC97"/><path d="M43.437 47.083V50h-2.916v-2.917c0-.802.656-1.458 1.458-1.458.802 0 1.458.656 1.458 1.458zm-2.917-8.385a1.823 1.823 0 11-3.646-.001 1.823 1.823 0 013.647 0zm4.74 1.822a1.823 1.823 0 100-3.645 1.823 1.823 0 000 3.646z" fill="#fff"/><path d="M38.698 40.52a1.824 1.824 0 11.001-3.646 1.824 1.824 0 01-.001 3.647zm3.281-8.02c-4.419 0-8.02 3.617-8.02 8.05 0 2.275 1.078 4.52 2.916 6.096v.802c0 1.4 1.152 2.552 2.552 2.552h2.552-1.458v-2.917c0-.802.656-1.458 1.458-1.458V32.5z" fill="#A36C22"/><path d="M41.98 45.625c-.803 0-1.46.656-1.46 1.458V50h1.46v-4.375zm-3.282-8.75a1.824 1.824 0 10.001 3.647 1.824 1.824 0 00-.001-3.647z" fill="#DEDEDE"/></g><defs><linearGradient id="paint0_linear_13_185" x1="6.094" y1="16.656" x2="68.656" y2="90.594" gradientUnits="userSpaceOnUse"><stop stop-color="#fff"/><stop offset="1" stop-color="#fff" stop-opacity="0"/></linearGradient><linearGradient id="paint1_linear_13_185" x1="16.453" y1="59.313" x2="65" y2="5.281" gradientUnits="userSpaceOnUse"><stop stop-color="#EACC97"/><stop offset="1" stop-color="#fff" stop-opacity="0"/></linearGradient><clipPath id="clip0_13_185"><path fill="#fff" transform="translate(15 15)" d="M0 0h35v35H0z"/></clipPath></defs></svg>