<svg width="65" height="65" fill="none" xmlns="http://www.w3.org/2000/svg"><rect width="65" height="65" rx="5" fill="url(#paint0_linear_13_125)" fill-opacity=".8"/><rect width="65" height="65" rx="5" fill="url(#paint1_linear_13_125)" fill-opacity=".2"/><g clip-path="url(#clip0_13_125)"><path d="M27.805 45.353c2.07.936 2.976 4.647 2.976 4.647l15.143-.042a14.913 14.913 0 00-.965-1.706 12.473 12.473 0 01-.717-1.812c-.354-1.2-.6-2.43-.733-3.674a10.845 10.845 0 01.835-5.612c.68-1.551 1.86-2.78 2.761-4.2a8.71 8.71 0 001.386-4.646 17.545 17.545 0 00-.608-4.948 9.35 9.35 0 00-3.4-4.88c-2.992-2.346-6.044-3.657-9.908-3.46-1.934.134-3.856.41-5.75.825-2.063.415-4.247 1.186-5.727 2.75a10.914 10.914 0 00-2.293 3.74 17.295 17.295 0 00-.574 2.113c-.247.78-.546 1.543-.893 2.284a1.49 1.49 0 00-.13.718c.116.836 1.37 1.195 1.38 2.056a1.2 1.2 0 01-.172.537 23.634 23.634 0 01-2.687 4.375c-.249.305-.753.905-.69 1.336.044.306.411.56.637.728.483.359 1.466.604 1.589 1.25.063.33.023.671-.114.977-.334.704-.704 1.08-.442 1.3.263.221.966.752.966.752s-.668.853-.298 1.115c.458.326 1.043.476 1.198 1.086a3.73 3.73 0 01-.142 1.436 2.94 2.94 0 00.174 1.343 1.646 1.646 0 001.936 1.2 50.704 50.704 0 005.262-1.588z" fill="#6F2205"/><path d="M40.449 40.617a1.835 1.835 0 01-1.698-1.14c-.164-.398-.751-.966-1.846-1.787-1.772-1.328-2.222-3.702-1.207-6.353l.362-.936 10.092 1.858-1.976 1.98h-.01c-.891.906-1.71 1.958-1.71 3.089a6.405 6.405 0 01-.315 2.078 1.769 1.769 0 01-1.69 1.21h-.002z" fill="#2C3E50"/><path d="M41.13 34.828a6.582 6.582 0 01-2.125-.347 7.147 7.147 0 01-1.392-.645 15.435 15.435 0 01-2.902-2.392 3.424 3.424 0 00-1.608-.917 5.393 5.393 0 00-.97-.135 7.333 7.333 0 00-.39-.01 30.53 30.53 0 00-4.006.423l-.821.12c-.36.051-.723.078-1.087.079-.114 0-.225 0-.331-.009a4.837 4.837 0 01-1.563-.298 4.083 4.083 0 01-2.611-3.456l-.013-.085a6.237 6.237 0 01-.039-1.383c.015-.346.06-.69.132-1.03.015-.069.252-1.072.436-1.68a6.43 6.43 0 01.099-.305c.145-.385.295-.733.448-1.048a9.477 9.477 0 011.59-2.293 7.084 7.084 0 012.304-1.545c.428-.188.868-.349 1.317-.482a16.29 16.29 0 011.467-.366 61.382 61.382 0 012.867-.517c.444-.068.89-.124 1.34-.174a21.6 21.6 0 011.279-.103c.026 0 .06-.005.097-.007.233-.01.467-.016.694-.016.181 0 .357.006.528.012.449.016.896.058 1.339.128 1.312.206 2.58.631 3.75 1.259.319.162.628.339.933.534.429.258.9.58 1.414.965.144.106.285.214.432.33.274.208.534.434.78.676a7.735 7.735 0 012.202 3.578c.242.87.404 1.761.483 2.66.043.467.066.892.072 1.307.01.191.01.402.01.62a6.73 6.73 0 01-.05.75c-.044.489-.142.97-.294 1.437-.2.65-.486 1.269-.85 1.842a5.7 5.7 0 01-2.766 2.209 8.344 8.344 0 01-2.198.314h.002z" fill="#2C3E50"/><path d="M36.827 31.77c-.398 1.038-1.074 3.548.802 4.954 1.405 1.054 1.992 1.699 2.238 2.293a.604.604 0 001.133 0 5.169 5.169 0 00.25-1.69c0-1.737 1.255-3.167 2.408-4.284.006 0 .012-.006.018-.012l-6.85-1.261z" fill="#DF4D60"/><path d="M46.072 27.673a15.25 15.25 0 00-.067-1.207 13.697 13.697 0 00-.446-2.45 6.535 6.535 0 00-1.895-3.054 7.095 7.095 0 00-.67-.579 18.662 18.662 0 00-.41-.314c-.453-.338-.9-.645-1.34-.911a10.044 10.044 0 00-.845-.483 10.612 10.612 0 00-3.373-1.134 9.744 9.744 0 00-1.201-.115 11.663 11.663 0 00-1.128.006c-.03 0-.06.006-.09.006a20.47 20.47 0 00-1.202.097 30.27 30.27 0 00-1.297.169 32.21 32.21 0 00-1.098.18 61.35 61.35 0 00-1.708.327c-.483.096-.936.21-1.358.338-.4.118-.794.261-1.177.428a5.875 5.875 0 00-1.919 1.273 8.203 8.203 0 00-1.382 1.992c-.144.295-.277.61-.398.929-.024.066-.048.145-.078.241-.175.58-.41 1.581-.41 1.581a5.274 5.274 0 00-.11.875c-.033.399-.019.8.043 1.195v.006a2.9 2.9 0 001.84 2.498 3.65 3.65 0 001.201.224 6.4 6.4 0 001.19-.06 31.797 31.797 0 015.454-.544c.403.02.803.077 1.195.17a4.61 4.61 0 012.16 1.224c.802.845 1.701 1.59 2.68 2.221a5.746 5.746 0 004.767.55 4.54 4.54 0 002.07-1.69 6.38 6.38 0 00.724-1.575c.127-.39.208-.793.241-1.201a5.07 5.07 0 00.043-.61c0-.205 0-.404-.006-.603z" fill="#FB7B76"/><path d="M25.56 25.259a1.816 1.816 0 01-1.81 1.81h-1.237v-.006a4.999 4.999 0 01-.042-1.195.294.294 0 01.072-.006h1.207c.333 0 .604-.27.604-.603a.603.603 0 111.206 0zm0 3.621v.85a.205.205 0 01-.006.06 3.669 3.669 0 01-1.2-.223v-.688a.604.604 0 011.206 0zm3.621-1.207h-.603c-1 0-1.81-.81-1.81-1.81v-.604c0-1 .81-1.81 1.81-1.81h.603a.603.603 0 110 1.206h-.603a.603.603 0 00-.604.604v.603c0 .334.27.604.604.604h.603a.603.603 0 010 1.207zm-3.017-4.828c0 .333-.27.603-.604.603h-2.365a.586.586 0 01-.205-.036c.03-.097.054-.175.078-.241.12-.32.253-.634.398-.93h2.094c.334 0 .604.27.604.604zm3.017-1.207c0 .333-.27.603-.603.603a1.816 1.816 0 01-1.81-1.81v-1.454c.382-.167.775-.31 1.176-.429.02.06.03.124.03.187v1.696c0 .333.27.604.604.604.333 0 .603.27.603.603zm2.414 4.827h-.604a.603.603 0 110-1.206h.604c.333 0 .603-.27.603-.604v-1.207a.603.603 0 111.207 0v1.207c0 1-.81 1.81-1.81 1.81z" fill="#FF5364"/><path d="M34.612 23.448a.604.604 0 01-.603-.603v-.604a.603.603 0 00-.604-.603h-1.207a.604.604 0 00-.603.603v.604a.603.603 0 11-1.207 0v-.604c0-1 .81-1.81 1.81-1.81h1.207c1 0 1.81.81 1.81 1.81v.604c0 .333-.27.603-.603.603zm-2.414-5.431v.604a.603.603 0 11-1.207 0v-.604c0-.044.006-.09.018-.132.363-.067.73-.127 1.099-.181a.56.56 0 01.09.313zm2.414-.543v1.146a.603.603 0 11-1.207 0v-1.086c.404-.042.803-.078 1.201-.096a.077.077 0 01.006.036zm3.621 2.957c0 .334-.27.604-.604.604h-1.207a.603.603 0 01-.603-.604v-2.963a.101.101 0 01.006-.042 9.65 9.65 0 011.2.115v2.287h.604c.334 0 .604.27.604.603zm-4.828 7.845v.965a.67.67 0 01-.012.115 6.634 6.634 0 00-1.195-.169v-.911a.603.603 0 011.207 0zm3.621 0h-.604c-1 0-1.81-.81-1.81-1.81v-.604a.603.603 0 111.207 0v.604c0 .333.27.603.603.603h.604a.604.604 0 010 1.207zm2.414-2.414h-.604a1.81 1.81 0 010-3.62h.604a.603.603 0 010 1.206h-.604a.603.603 0 000 1.207h.604a.603.603 0 010 1.207zm1.81-6.638v1.81a.603.603 0 01-1.207 0v-1.81c0-.237.14-.451.356-.549.284.145.561.302.845.483a.224.224 0 01.006.066zm2.414 1.738v1.28a1.816 1.816 0 01-1.81 1.81.603.603 0 110-1.207c.333 0 .603-.27.603-.604v-1.804a.6.6 0 01.127-.368c.138.102.271.205.41.314.235.178.459.372.67.579zm-3.017 7.918h-.604a.603.603 0 010-1.207h.604c.333 0 .603-.27.603-.604v-1.207a.603.603 0 011.207 0v1.207c0 1-.81 1.81-1.81 1.81zm1.81 1.81c0 .333-.27.603-.604.603h-1.81a.603.603 0 00-.603.604v1.207a.6.6 0 01-.049.235 5.959 5.959 0 01-1.158-.537v-.905a1.816 1.816 0 011.81-1.81h1.81a.603.603 0 01.604.603zm3.615-3.018h-1.805a.604.604 0 010-1.206h1.738c.036.392.06.796.067 1.206zm-.037 1.214a5.301 5.301 0 01-.241 1.2h-1.527a.604.604 0 010-1.206h1.684a.374.374 0 01.084.006z" fill="#FF5364"/></g><defs><linearGradient id="paint0_linear_13_125" x1="6.094" y1="16.656" x2="68.656" y2="90.594" gradientUnits="userSpaceOnUse"><stop stop-color="#fff"/><stop offset="1" stop-color="#fff" stop-opacity="0"/></linearGradient><linearGradient id="paint1_linear_13_125" x1="16.453" y1="59.313" x2="65" y2="5.281" gradientUnits="userSpaceOnUse"><stop stop-color="#EACC97"/><stop offset="1" stop-color="#fff" stop-opacity="0"/></linearGradient><clipPath id="clip0_13_125"><path fill="#fff" transform="translate(15 15)" d="M0 0h35v35H0z"/></clipPath></defs></svg>