<svg width="65" height="65" fill="none" xmlns="http://www.w3.org/2000/svg"><rect width="65" height="65" rx="5" fill="url(#paint0_linear_13_215)" fill-opacity=".8"/><rect width="65" height="65" rx="5" fill="url(#paint1_linear_13_215)" fill-opacity=".2"/><g clip-path="url(#clip0_13_215)"><path d="M48.974 31.5c0 9.099-7.375 16.474-16.474 16.474S16.025 40.6 16.025 31.5 23.401 15.025 32.5 15.025 48.974 22.401 48.974 31.5z" fill="#FEF4F5"/><path d="M32.5 15.025v32.95c9.099 0 16.474-7.376 16.474-16.475S41.6 15.025 32.5 15.025z" fill="#93B0D0"/><path d="M49.995 32.5l-.015-.164a17.385 17.385 0 00-5.106-13.21A17.385 17.385 0 0032.5 14.001c-4.674 0-9.07 1.82-12.374 5.125a17.385 17.385 0 00-5.122 12.736 24.783 24.783 0 000 .817c.14 1.766.439 3.29.914 4.656l.01.03c.595 1.555 1.327 2.936 2.176 4.104l.018.024.058.075a17.687 17.687 0 001.946 2.307A17.385 17.385 0 0032.5 49c4.674 0 9.069-1.82 12.374-5.125a17.368 17.368 0 005.067-10.94 1.01 1.01 0 00.054-.436zM38.591 45.696c.382-.23.754-.477 1.111-.739l.008-.005a15.154 15.154 0 003.93-4.393c.934-1.532 1.36-3.028 1.625-4.16l.01-.042a19.19 19.19 0 01.17-.809c.033-.2.046-.378.057-.536a4.3 4.3 0 01.02-.223l.001-.012.068-.605a2.87 2.87 0 00.011-.497 2.194 2.194 0 01-.003-.106v-.043c-.007-.57.007-.876.007-.879v-.105a.973.973 0 00-.01-.1 17.523 17.523 0 01-.104-.916 1.415 1.415 0 01-.008-.103 2.863 2.863 0 00-.063-.49l-.13-.588a17.958 17.958 0 01-.42-1.554c-.372-1.06-.932-2.447-1.969-3.8a14.003 14.003 0 00-4.046-3.667 13.89 13.89 0 00-5.968-1.82 3.68 3.68 0 00-.607-.01 2.48 2.48 0 01-.235.006h-.03l-.367-.003a2.48 2.48 0 00-.604.035 8.488 8.488 0 01-.487.055c-.346.033-.734.07-1.136.184-1.201.202-2.294.688-3.227 1.13a.938.938 0 00-.084.044c-.217.128-.438.25-.657.363l-.022.011c-.2.11-.364.232-.51.34-.08.059-.157.115-.222.156l-.016.01-.343.225a1.09 1.09 0 00-.114.087l-.311.273-.017.015c-.065.06-.145.125-.23.193-.129.103-.274.22-.419.36-.79.758-1.513 1.67-2.21 2.788a.774.774 0 00-.02.034c-.54.942-.968 2.016-1.311 3.282a.566.566 0 00-.01.041c-.23 1.005-.326 2.114-.304 3.49a.75.75 0 00.006.096c.147 1.347.379 2.417.728 3.37l.016.04c.482 1.158 1.014 2.116 1.628 2.93l.026.034c.776.946 1.54 1.692 2.334 2.28.149.114.294.202.423.28.081.049.157.095.215.136l.017.012.3.206c.044.03.09.057.138.08l.329.157.018.008c.054.024.122.064.195.105a3.495 3.495 0 00.526.256c.198.07.393.146.58.229.034.015.069.028.105.04.942.298 1.87.568 2.857.602.202.032.396.041.58.041.13 0 .257-.005.376-.009.143-.005.277-.01.393-.006.228.019.427-.01.566-.037l.291-.041.032-.005a1.91 1.91 0 01.157-.015c.14-.01.328-.022.532-.075a11.098 11.098 0 004.511-2.032l.012-.009a10.708 10.708 0 002.692-3.155c.626-1.066.874-2.066 1.057-2.921a.658.658 0 00.012-.064c.023-.152.051-.3.085-.44a2.815 2.815 0 00.047-.502 1.935 1.935 0 01.008-.149 4.77 4.77 0 01.034-.336l.001-.008c.026-.195.009-.36-.002-.459 0-.011-.002-.022-.003-.032l-.001-.04a5.206 5.206 0 01-.006-.485c.01-.108.004-.22-.023-.331 0-.002-.04-.18-.074-.502l-.005-.04-.001-.027a1.85 1.85 0 00-.073-.463 5.066 5.066 0 01-.115-.46c-.019-.102-.043-.243-.094-.4a1.007 1.007 0 00-.031-.081 4.567 4.567 0 01-.147-.4 1.012 1.012 0 00-.023-.065c-.304-.774-.688-1.673-1.416-2.553a9.59 9.59 0 00-2.822-2.414l-.015-.008a9.376 9.376 0 00-3.989-1.083 2.193 2.193 0 00-.483.011l-.083.008h-.061a3.528 3.528 0 01-.169.003c-.2-.013-.382.004-.555.051a2.984 2.984 0 01-.27.038c-.212.024-.47.053-.745.146-.717.138-1.345.448-1.902.723l-.15.073a1.02 1.02 0 00-.131.078 2.622 2.622 0 01-.348.204c-.17.094-.298.203-.392.282a2.603 2.603 0 01-.07.059 2.603 2.603 0 01-.199.132 1.04 1.04 0 00-.193.15l-.185.186-.017.018c-.014.015-.06.052-.094.08a2.874 2.874 0 00-.291.264c-.595.617-1.037 1.307-1.356 1.84l-.031.056c-.38.732-.591 1.474-.749 2.103l-.014.068c-.131.73-.125 1.42-.106 2.183.002.051.007.103.016.154.12.67.261 1.381.545 2.067l.031.068c.271.54.61 1.168 1.077 1.736a.986.986 0 00.048.055c.405.429.898.92 1.485 1.318.12.085.234.141.318.183l.057.028.01.007.174.117c.08.055.168.097.26.127a1.313 1.313 0 01.152.056l.033.019a1.841 1.841 0 00.467.194c.073.017.137.037.195.063.06.027.124.048.19.062l.249.06c.421.1.895.213 1.422.196.079.009.153.013.224.013.142 0 .269-.015.374-.027.04-.005.094-.011.123-.013.183.018.366-.003.558-.065l.068-.014.03-.006h.007c.096-.006.263-.016.455-.084a6.722 6.722 0 002.513-1.325l.023-.02a6.246 6.246 0 001.44-1.922c.32-.61.405-1.188.462-1.572a10.701 10.701 0 01.025-.18 6.807 6.807 0 000-1.252c.006-.101-.002-.2-.024-.295v-.007a1.766 1.766 0 01-.02-.142l-.001-.006a1.36 1.36 0 00-.055-.327 1.66 1.66 0 01-.028-.103l-.003-.016-.002-.011c-.01-.055-.026-.145-.06-.25a1.037 1.037 0 00-.031-.083 1.276 1.276 0 01-.044-.118 1.107 1.107 0 00-.023-.066c-.106-.27-.302-.769-.696-1.247a4.692 4.692 0 00-1.378-1.175l-.014-.008a4.588 4.588 0 00-1.938-.53c-.138-.013-.25 0-.314.007h-.05a1.286 1.286 0 00-.385.036c-.017.003-.035.004-.052.006-.1.011-.24.027-.402.077-.368.077-.674.228-.924.352l-.063.03a1.09 1.09 0 00-.132.078.511.511 0 01-.099.056c-.123.069-.21.142-.261.186l-.003.003-.01.006a1.04 1.04 0 00-.221.17l-.075.075-.009.007c-.04.033-.107.088-.178.163a4.89 4.89 0 00-.689.945 4.715 4.715 0 00-.382 1.094c-.065.363-.063.704-.054 1.05a.919.919 0 00.016.157c.054.304.125.657.268 1.003l.031.068c.13.26.294.563.53.85a4.477 4.477 0 00.778.7c.079.055.15.092.195.114l.048.033c.08.053.165.094.255.124a1.355 1.355 0 00.323.127c.057.024.115.043.175.057l.099.023c.191.046.423.1.697.1.047 0 .096 0 .146-.004.565-.042.992-.533.95-1.098a1.024 1.024 0 00-1.095-.948c-.035 0-.143-.026-.222-.045a2.202 2.202 0 00-.043-.01 1.93 1.93 0 00-.112-.037 1.355 1.355 0 00-.13-.06 1.523 1.523 0 00-.155-.087 2.619 2.619 0 01-.342-.312 2.641 2.641 0 01-.245-.408 2.852 2.852 0 01-.119-.476 3.174 3.174 0 01.02-.529 2.71 2.71 0 01.177-.518c.093-.153.213-.338.35-.484l.006-.004a1.88 1.88 0 00.161-.144l.018-.013c.06-.04.11-.08.144-.109a2.95 2.95 0 00.153-.092l.006-.003c.174-.085.338-.166.45-.184a1.26 1.26 0 00.158-.04l.039-.005c.056-.006.126-.014.206-.029h.084c.07 0 .128-.006.17-.01.388.018.752.115 1.08.289.354.197.61.468.764.66.004.007.01.012.014.018.167.2.267.429.36.665.02.058.04.116.063.174a4.47 4.47 0 00.06.257l.007.065c.009.08.019.15.028.206 0 .066.005.125.01.171.014.176.039.466.005.865l-.015.099c-.045.306-.092.623-.254.928a4.204 4.204 0 01-.972 1.324 4.728 4.728 0 01-1.78.924 2.995 2.995 0 00-.476.08 2.928 2.928 0 00-.405.027c-.04.005-.092.01-.122.012a1.018 1.018 0 00-.258-.013c-.263.019-.57-.055-.927-.14l-.186-.044a3.074 3.074 0 00-.38-.123l-.011-.007a3.409 3.409 0 00-.41-.186l-.055-.036a2.295 2.295 0 00-.312-.179 2.876 2.876 0 01-.06-.03l-.01-.007c-.415-.281-.801-.664-1.126-1.007-.319-.395-.569-.854-.79-1.295-.189-.467-.3-1.011-.395-1.535-.015-.604-.017-1.15.07-1.657.126-.498.29-1.071.558-1.597.262-.436.617-.987 1.061-1.447l.014-.014c.014-.015.06-.052.093-.08a2.83 2.83 0 00.273-.245l.096-.096c.049-.032.097-.064.144-.097.113-.074.204-.152.273-.21l.066-.055c.153-.079.303-.168.449-.265l.088-.043c.5-.247.972-.48 1.432-.556.074-.013.145-.033.215-.06.058-.024.198-.04.32-.054.151-.017.321-.035.507-.078h.026a5.3 5.3 0 00.282 0c.125 0 .236-.012.318-.021l.07-.007a7.356 7.356 0 013.21.847c1.03.572 1.77 1.349 2.207 1.9l.014.017c.53.638.825 1.322 1.08 1.97.052.16.111.324.178.485l.019.101c.013.073.029.163.055.261.03.13.065.26.103.389l.001.016c.003.054.006.124.018.205.028.258.059.45.082.574a7.64 7.64 0 00.008.585c.001.08.009.149.014.2l.002.026a7.006 7.006 0 00-.04.411c-.01.1-.012.191-.014.265 0 .04-.001.088-.004.12-.04.17-.073.347-.1.527-.157.723-.351 1.495-.819 2.29a8.633 8.633 0 01-2.178 2.568 9.07 9.07 0 01-3.706 1.656.861.861 0 00-.073.018c-.026.006-.1.01-.156.014-.098.007-.22.015-.352.037l-.306.044a.901.901 0 00-.1.018l-.03-.002a6.745 6.745 0 00-.59.004c-.222.008-.431.016-.584-.013a1.036 1.036 0 00-.17-.018c-.731-.015-1.48-.231-2.31-.493a9.863 9.863 0 00-.662-.26 2.263 2.263 0 01-.207-.11 4.33 4.33 0 00-.351-.184l-.248-.118-.226-.155c-.12-.085-.237-.156-.34-.219a2.861 2.861 0 01-.244-.157l-.013-.01c-.655-.484-1.296-1.113-1.962-1.921-.5-.667-.941-1.468-1.35-2.447-.283-.777-.475-1.674-.603-2.819-.016-1.176.063-2.11.249-2.935.294-1.08.653-1.984 1.097-2.764.603-.965 1.22-1.743 1.883-2.378l.01-.01a3.94 3.94 0 01.268-.229c.1-.08.213-.17.325-.273l.25-.219.275-.18c.127-.08.24-.164.34-.238.097-.072.19-.14.263-.182.237-.122.476-.254.71-.391.812-.383 1.753-.8 2.696-.949a.977.977 0 00.14-.032c.228-.07.506-.096.8-.124.204-.02.413-.04.634-.075a.573.573 0 01.17-.009l.055.003.38.002c.14.005.269-.001.384-.006.108-.005.22-.01.28-.002a11.822 11.822 0 015.161 1.55 11.94 11.94 0 013.447 3.13l.01.012c.852 1.11 1.316 2.246 1.657 3.215.074.245.155.493.24.739.023.085.04.184.059.289.018.101.037.206.063.318l.13.585.002.011c.007.03.011.097.015.157.004.068.008.144.019.229.04.433.078.73.097.873a22.764 22.764 0 00.002 1.277l-.002.011-.068.603a6.113 6.113 0 00-.028.326c-.008.11-.016.215-.03.307a23.11 23.11 0 00-.164.778c-.245 1.041-.602 2.274-1.377 3.545l-.007.012a13.085 13.085 0 01-3.392 3.796 13.562 13.562 0 01-5.702 2.39 2.675 2.675 0 01-.382.043c-.125.009-.265.019-.414.039l-.446.048a1.42 1.42 0 00-.043.005 1.062 1.062 0 01-.27.015 14.099 14.099 0 00-.677-.006c-.385.003-.749.006-1.073-.05a.99.99 0 00-.118-.014c-1.219-.072-2.44-.453-3.478-.82a29.444 29.444 0 00-.918-.386 4.453 4.453 0 01-.42-.222c-.127-.073-.259-.149-.405-.222l-.395-.208-.368-.254c-.133-.095-.264-.18-.39-.263a6.022 6.022 0 01-.438-.303c-.9-.691-1.773-1.564-2.6-2.597a15.361 15.361 0 01-2.895-8.634c.026-1.306.167-2.466.43-3.526.412-1.472.964-2.793 1.639-3.927.824-1.296 1.736-2.41 2.712-3.31l.007-.007c.132-.125.286-.247.449-.376.124-.099.252-.2.382-.312l.385-.318.416-.272c.143-.09.275-.182.402-.27.168-.117.326-.227.47-.305l.962-.514c1.547-.718 2.74-1.116 3.862-1.29a.976.976 0 00.103-.022c.4-.104.837-.142 1.3-.18a19.918 19.918 0 00.738-.074 1.69 1.69 0 01.331-.01l.034.002.52.007a8.5 8.5 0 00.45.002c.186-.003.362-.005.503.013l.05.005c2.496.198 4.933.976 7.041 2.248 1.793 1.096 3.413 2.607 4.683 4.368a.191.191 0 00.007.01c1.212 1.64 1.852 3.33 2.229 4.463l.038.125.26.858c.04.152.069.312.099.48.02.119.042.24.069.365l.03.15.127.637c.018.09.025.197.032.311.006.085.012.173.023.266l.085.91c-.335 5.982-4.087 11.064-9.332 13.323z" fill="#EACC97"/><path d="M49.98 32.335a17.385 17.385 0 00-5.106-13.21A17.385 17.385 0 0032.502 14v3.166c.049 0 .098 0 .146-.002a3.857 3.857 0 01.554.019c2.496.198 4.933.976 7.041 2.248 1.794 1.096 3.413 2.607 4.683 4.368l.007.01c1.212 1.64 1.852 3.33 2.229 4.462l.038.125.26.858c.04.153.069.313.099.481.02.118.042.24.069.364l.03.151.127.637c.018.09.025.197.032.31.006.086.012.173.023.267l.086.91c-.336 5.981-4.089 11.064-9.333 13.323.382-.23.753-.477 1.111-.74l.008-.005a15.153 15.153 0 003.93-4.392c.934-1.533 1.359-3.028 1.625-4.16l.01-.043a18.33 18.33 0 01.169-.808c.034-.2.047-.379.058-.537a4.564 4.564 0 01.02-.235l.069-.605c.023-.198.016-.37.01-.497 0-.04-.003-.086-.002-.106v-.043c-.007-.569.006-.876.006-.879v-.104a1.1 1.1 0 00-.01-.1c0-.004-.046-.312-.099-.875l-.005-.042-.007-.102c-.008-.125-.018-.296-.063-.491l-.13-.587a.687.687 0 00-.004-.014 5.664 5.664 0 01-.041-.214 4.89 4.89 0 00-.113-.517 17.479 17.479 0 01-.263-.81c-.371-1.059-.93-2.447-1.968-3.8-1.111-1.49-2.51-2.758-4.047-3.667a13.886 13.886 0 00-5.968-1.82 2.863 2.863 0 00-.387-.015v2.05a1.077 1.077 0 01.22.01c1.801.122 3.563.656 5.095 1.543a11.945 11.945 0 013.446 3.13l.01.013c.852 1.109 1.316 2.246 1.657 3.214.074.246.155.494.24.739.023.086.04.185.059.29.018.1.037.206.063.318l.13.585a1.35 1.35 0 01.017.168c.004.067.008.144.019.228.04.433.078.73.097.873a22.8 22.8 0 00.002 1.277l-.002.012-.067.603a5.824 5.824 0 00-.03.325 3.68 3.68 0 01-.029.308c-.058.252-.113.513-.163.777-.246 1.042-.603 2.275-1.378 3.545a13.088 13.088 0 01-3.398 3.808 13.561 13.561 0 01-5.703 2.391 2.037 2.037 0 01-.285.036V49c4.674 0 9.069-1.82 12.374-5.126a17.367 17.367 0 005.067-10.94c.048-.136.069-.283.054-.435l-.015-.164z" fill="#A36C22"/><path d="M37.274 41.296a10.706 10.706 0 002.704-3.165c.626-1.066.874-2.066 1.057-2.92a1.1 1.1 0 00.012-.064c.022-.152.05-.3.085-.44.006-.027.012-.054.016-.082.026-.165.029-.313.031-.42 0-.038.002-.09.003-.108a4.776 4.776 0 01.038-.378l.002-.008c.025-.194.008-.36-.002-.458l-.003-.033-.001-.04a5.405 5.405 0 01-.006-.485 1.02 1.02 0 00-.023-.33c0-.002-.04-.18-.074-.502l-.005-.04-.002-.027a1.846 1.846 0 00-.07-.454c0-.003 0-.006-.002-.009a4.835 4.835 0 01-.116-.46 2.903 2.903 0 00-.093-.4.972.972 0 00-.031-.082 4.417 4.417 0 01-.147-.399 1.117 1.117 0 00-.024-.065c-.303-.774-.688-1.673-1.416-2.553a9.592 9.592 0 00-2.821-2.414l-.015-.008a9.366 9.366 0 00-3.871-1.076v2.055a7.32 7.32 0 012.901.828c1.031.572 1.77 1.348 2.208 1.9l.014.017c.529.637.824 1.321 1.079 1.969.052.161.112.325.178.485l.02.102a7.023 7.023 0 00.158.65v.016a7.497 7.497 0 00.1.779c-.003.125-.004.32.008.584.002.08.009.15.014.201 0 .009.002.017.003.026a7.002 7.002 0 00-.041.41c-.01.1-.012.191-.013.266l-.004.12c-.04.17-.074.346-.102.526-.156.724-.35 1.496-.818 2.29l-.01.018a8.629 8.629 0 01-2.168 2.55 9.046 9.046 0 01-3.527 1.618v2.092a2.19 2.19 0 00.263-.05 11.1 11.1 0 004.51-2.032z" fill="#6F2205"/><path d="M34.892 37.594a6.241 6.241 0 001.44-1.922c.32-.61.405-1.188.462-1.572a17.33 17.33 0 01.025-.18 6.808 6.808 0 000-1.252c.006-.101-.002-.2-.024-.295v-.006l-.001-.001a1.85 1.85 0 01-.02-.142v-.007a1.366 1.366 0 00-.055-.326 1.53 1.53 0 01-.032-.119l-.002-.012a1.794 1.794 0 00-.09-.332 1.275 1.275 0 01-.044-.118 1.182 1.182 0 00-.023-.066c-.106-.27-.302-.769-.696-1.247a4.688 4.688 0 00-1.378-1.175l-.014-.008a4.588 4.588 0 00-1.938-.53H32.5v2.055c.346.03.672.125.97.282a2.648 2.648 0 01.777.678c.167.2.267.429.36.665.02.058.04.116.063.174.006.034.014.08.028.131.01.042.02.084.032.125l.007.065c.009.081.018.15.028.207 0 .066.005.125.01.171.014.175.039.465.005.865l-.015.099c-.045.306-.092.623-.254.928a4.208 4.208 0 01-.972 1.324c-.318.265-.662.48-1.04.653v2.19a6.688 6.688 0 002.393-1.302z" fill="#6F2205"/></g><defs><linearGradient id="paint0_linear_13_215" x1="6.094" y1="16.656" x2="68.656" y2="90.594" gradientUnits="userSpaceOnUse"><stop stop-color="#fff"/><stop offset="1" stop-color="#fff" stop-opacity="0"/></linearGradient><linearGradient id="paint1_linear_13_215" x1="16.453" y1="59.313" x2="65" y2="5.281" gradientUnits="userSpaceOnUse"><stop stop-color="#EACC97"/><stop offset="1" stop-color="#fff" stop-opacity="0"/></linearGradient><clipPath id="clip0_13_215"><path fill="#fff" transform="translate(15 14)" d="M0 0h35v35H0z"/></clipPath></defs></svg>