<svg width="65" height="65" fill="none" xmlns="http://www.w3.org/2000/svg"><rect width="65" height="65" rx="5" fill="url(#paint0_linear_13_155)" fill-opacity=".8"/><rect width="65" height="65" rx="5" fill="url(#paint1_linear_13_155)" fill-opacity=".2"/><path d="M27.62 43L20 39.19v-9.38l7.62 3.81V43z" fill="#A36C22"/><path d="M27.62 43l7.621-3.81v-9.38l-7.62 3.81V43z" fill="#6F2205"/><path d="M20 29.81L27.328 26l7.913 3.81-7.62 3.81L20 29.81z" fill="#EACC97"/><path d="M37.81 37l-7.62-3.81v-9.38l7.62 3.81V37z" fill="#A36C22"/><path d="M37.81 37l7.621-3.81v-9.38l-7.62 3.81V37z" fill="#6F2205"/><path d="M30.19 23.81L37.517 20l7.914 3.81-7.62 3.81-7.621-3.81z" fill="#EACC97"/><defs><linearGradient id="paint0_linear_13_155" x1="6.094" y1="16.656" x2="68.656" y2="90.594" gradientUnits="userSpaceOnUse"><stop stop-color="#fff"/><stop offset="1" stop-color="#fff" stop-opacity="0"/></linearGradient><linearGradient id="paint1_linear_13_155" x1="16.453" y1="59.313" x2="65" y2="5.281" gradientUnits="userSpaceOnUse"><stop stop-color="#EACC97"/><stop offset="1" stop-color="#fff" stop-opacity="0"/></linearGradient></defs></svg>