<svg width="65" height="65" fill="none" xmlns="http://www.w3.org/2000/svg"><rect width="65" height="65" rx="5" fill="url(#paint0_linear_13_95)" fill-opacity=".8"/><rect width="65" height="65" rx="5" fill="url(#paint1_linear_13_95)" fill-opacity=".2"/><path d="M41.746 49.999c-.567 0-1.026-.46-1.026-1.025v-3.965a1.025 1.025 0 012.051 0v3.965c0 .566-.46 1.025-1.025 1.025z" fill="#93B0D0"/><path d="M41.746 43.983V50c.566 0 1.025-.46 1.025-1.025V45.01c0-.566-.46-1.026-1.025-1.026z" fill="#6892C1"/><path d="M28.005 25.117h-1.128V21.03h-6.699v4.088H19.05a2.566 2.566 0 00-2.563 2.564v3.215l2.584 6.178-2.584 6.284v4.079A2.566 2.566 0 0019.05 50h8.955a2.566 2.566 0 002.564-2.563v-4.114l-3.435-7.051L30.57 31v-3.32a2.566 2.566 0 00-2.564-2.564z" fill="#A36C22"/><path d="M30.569 27.68a2.566 2.566 0 00-2.564-2.563h-1.128V21.03h-3.349V50h4.477a2.566 2.566 0 002.564-2.563v-4.114l-3.435-7.051L30.568 31v-3.32z" fill="#6F2205"/><path d="M44.822 24.229h-6.153v-8.204h6.153v8.204z" fill="#FFF4F4"/><path d="M41.746 16.025h3.076v8.204h-3.076v-8.204z" fill="#F6EFEA"/><path d="M16.487 30.928h14.082V43.32H16.487V30.928z" fill="#93B0D0"/><path d="M43.796 46.034h-4.101a1.026 1.026 0 01-1.026-1.025v-4.102c0-.566.46-1.025 1.026-1.025h4.101c.567 0 1.026.459 1.026 1.025v4.102c0 .566-.46 1.025-1.026 1.025z" fill="#FFF4F4"/><path d="M43.796 39.882h-2.05v6.152h2.05c.567 0 1.026-.459 1.026-1.025v-4.102c0-.566-.46-1.025-1.026-1.025z" fill="#F6EFEA"/><path d="M45.847 17.05h-8.203a1.025 1.025 0 010-2.05h8.203a1.025 1.025 0 010 2.05z" fill="#93B0D0"/><path d="M45.356 32.397l1.517-1.455v-2.06L45.1 27.94l1.773-1.105V23.75c0-.566-.46-1.025-1.026-1.025h-8.203c-.566 0-1.025.459-1.025 1.025v8.647h8.737z" fill="#FFF4F4"/><path d="M46.873 23.75c0-.566-.46-1.025-1.026-1.025h-4.101v9.672h3.61l1.517-1.455v-2.06L45.1 27.94l1.773-1.105V23.75z" fill="#F6EFEA"/><path d="M46.873 26.826h-3.829a1.025 1.025 0 000 2.051h3.829v-2.05z" fill="#EEE1DC"/><path d="M36.619 31.941v8.966c0 .566.459 1.026 1.025 1.026h8.203c.566 0 1.026-.46 1.026-1.026v-3.844l-1.052-1.001 1.052-1.036v-2.06l-1.122-1.025H36.62z" fill="#FF405C"/><path d="M46.873 32.967L45.75 31.94h-4.005v9.991h4.101c.566 0 1.026-.459 1.026-1.025v-3.844l-1.052-1.001 1.052-1.036v-2.06z" fill="#C1126B"/><path d="M46.873 30.928h-3.829a1.025 1.025 0 000 2.05h3.829v-2.05zm0 4.102h-3.829a1.025 1.025 0 000 2.05h3.829v-2.05z" fill="#EEE1DC"/><path d="M47.488 24.775H36.004a1.025 1.025 0 010-2.05h11.484a1.025 1.025 0 010 2.05z" fill="#93B0D0"/><path d="M26.878 21.157v-5.644a.513.513 0 00-.512-.513h-5.674a.513.513 0 00-.513.513v5.644h6.699z" fill="#FFDE46"/><path d="M26.366 15h-2.838v6.157h3.35v-5.644a.513.513 0 00-.512-.513z" fill="#FFCD00"/><path d="M23.528 30.928h7.04V43.32h-7.04V30.928zM45.847 15h-4.101v2.05h4.101a1.025 1.025 0 000-2.05zm1.641 7.725h-5.742v2.05h5.742a1.025 1.025 0 000-2.05z" fill="#6892C1"/><defs><linearGradient id="paint0_linear_13_95" x1="6.094" y1="16.656" x2="68.656" y2="90.594" gradientUnits="userSpaceOnUse"><stop stop-color="#fff"/><stop offset="1" stop-color="#fff" stop-opacity="0"/></linearGradient><linearGradient id="paint1_linear_13_95" x1="16.453" y1="59.313" x2="65" y2="5.281" gradientUnits="userSpaceOnUse"><stop stop-color="#EACC97"/><stop offset="1" stop-color="#fff" stop-opacity="0"/></linearGradient></defs></svg>