<svg width="65" height="65" fill="none" xmlns="http://www.w3.org/2000/svg"><rect width="65" height="65" rx="5" fill="url(#paint0_linear_13_84)" fill-opacity=".8"/><rect width="65" height="65" rx="5" fill="url(#paint1_linear_13_84)" fill-opacity=".2"/><g clip-path="url(#clip0_13_84)"><path d="M44.215 50h-5.778a1.084 1.084 0 01-1.084-1.084v-9.288a.31.31 0 01.31-.31h7.326a.31.31 0 01.31.31v9.288c0 .599-.485 1.084-1.084 1.084z" fill="#E5F9F6"/><path d="M44.989 39.317h-3.59V50h2.816c.599 0 1.084-.486 1.084-1.084v-9.288a.31.31 0 00-.31-.31z" fill="#D6E5E2"/><path d="M37.353 42.626v6.29c0 .599.485 1.084 1.084 1.084h5.778c.599 0 1.084-.485 1.084-1.084v-6.29h-7.946zm-9.162-17.013s.399-.402.399-2.264c0-2.702-.998-4.65-.998-4.65h-3.44s-.997 1.948-.997 4.65c0 1.862.398 2.264.398 2.264l-3.069 2.444a2.078 2.078 0 00-.783 1.625V48.77c0 .679.55 1.23 1.23 1.23h9.882c.68 0 1.23-.551 1.23-1.23V29.681c0-.633-.288-1.231-.783-1.625l-3.069-2.444z" fill="#A36C22"/><path d="M31.26 28.056l-3.069-2.443s.399-.402.399-2.264c0-2.702-.998-4.65-.998-4.65h-2.943v5.745c-.007 1.59.714 2.055 1.958 3.045l.713.568c.495.394.783.992.783 1.625V50h2.71c.68 0 1.23-.551 1.23-1.23V29.682c0-.633-.288-1.231-.783-1.625z" fill="#6F2205"/><path d="M32.044 30.918H19.7v16.5h12.343v-16.5z" fill="#4A4256"/><path d="M32.044 30.918h-3.94v16.5h3.94v-16.5z" fill="#352F3F"/><path d="M28.666 35.528c-1.885-.84-3.699-.843-5.587 0a.482.482 0 01-.61-.196l-.47-.792a.485.485 0 01.215-.687c2.43-1.125 4.885-1.125 7.316 0 .26.12.361.44.215.687l-.47.792a.483.483 0 01-.61.196zm-2.794 6.207c1.7 0 3.077-.944 3.077-2.11 0-1.165-1.378-2.11-3.077-2.11-1.7 0-3.078.945-3.078 2.11 0 1.166 1.378 2.11 3.078 2.11zm3.192 3.135H22.68a.528.528 0 010-1.057h6.384a.528.528 0 110 1.056z" fill="#EFEFEF"/><path d="M28.587 23.162c-.044-2.604-.995-4.463-.995-4.463h-3.44s-.95 1.859-.995 4.463h5.43z" fill="#4A4256"/><path d="M28.587 23.162c-.041-2.441-.88-4.227-.985-4.441l-.003-.007-.005-.01a.221.221 0 00-.003-.005H24.65v4.463h3.938z" fill="#352F3F"/><path d="M27.942 19.286h-4.14a.332.332 0 01-.332-.331v-3.623c0-.184.149-.332.332-.332h4.14c.184 0 .332.149.332.332v3.622a.332.332 0 01-.332.332z" fill="#4A4256"/><path d="M28.274 16.337H23.47v1.129h4.804v-1.13z" fill="#EFEFEF"/><path d="M45.3 48.916v-6.29h-3.901V50h2.816c.599 0 1.084-.485 1.084-1.084z" fill="#6F2205"/><path d="M44.215 48.277h-5.778c-.599 0-1.084.014-1.084-.585v1.224c0 .599.485 1.084 1.084 1.084h5.778c.599 0 1.084-.485 1.084-1.084v-1.224c0 .599-.485.585-1.084.585z" fill="#D7E0DC"/><path d="M44.215 48.277h-2.816V50h2.816a1.081 1.081 0 001.076-.959c.005-.04.008-.083.008-.125v-1.224c0 .599-.485.585-1.084.585z" fill="#C9D1CD"/><path d="M29.53 33.853a9.554 9.554 0 00-1.427-.53v1.979c.187.067.374.142.563.226.223.1.485.014.61-.196l.469-.791a.485.485 0 00-.215-.688zm-1.427 4.32v2.905c.524-.379.847-.89.847-1.453 0-.563-.323-1.074-.847-1.452z" fill="#DEE0E2"/></g><defs><linearGradient id="paint0_linear_13_84" x1="6.094" y1="16.656" x2="68.656" y2="90.594" gradientUnits="userSpaceOnUse"><stop stop-color="#fff"/><stop offset="1" stop-color="#fff" stop-opacity="0"/></linearGradient><linearGradient id="paint1_linear_13_84" x1="16.453" y1="59.313" x2="65" y2="5.281" gradientUnits="userSpaceOnUse"><stop stop-color="#EACC97"/><stop offset="1" stop-color="#fff" stop-opacity="0"/></linearGradient><clipPath id="clip0_13_84"><path fill="#fff" transform="translate(15 15)" d="M0 0h35v35H0z"/></clipPath></defs></svg>