<svg width="48" height="48" fill="none" xmlns="http://www.w3.org/2000/svg"><g clip-path="url(#clip0_9_204)"><path d="M38.737 48V35.368a8.42 8.42 0 00-7.26-8.341H15.68a8.42 8.42 0 00-7.259 8.341V48h30.316z" fill="#69B0EE"/><path d="M19.368 29.1h8.422V48h-8.422V29.1z" fill="#EEEFEE"/><path d="M19.368 26.021h8.422V33.6a5.879 5.879 0 01-4.211 1.768 5.879 5.879 0 01-4.21-1.768v-7.58z" fill="#F5BE9A"/><path d="M19.368 30.77c.85.254 1.732.384 2.62.388h3.183a9.306 9.306 0 002.619-.387v-4.75h-8.422v4.75z" fill="#EC917F"/><path d="M15 19h-2.5c-1.38 0-2.5-1.567-2.5-3.5s1.12-3.5 2.5-3.5H15v7z" fill="#F5BE9A"/><path d="M25.17 29.474h-3.183a9.354 9.354 0 01-9.355-9.356v-9.17C12.632 4.9 17.532 0 23.579 0c6.046 0 10.947 4.901 10.947 10.947v9.171a9.355 9.355 0 01-9.355 9.356z" fill="#F5BE9A"/><path d="M6.737 41.263h6.737v3.369H6.737v-3.369z" fill="#519CDE"/><path d="M30.223 29.474H27.04a9.354 9.354 0 01-9.356-9.356v-9.17C17.684 4.9 22.585 0 28.632 0c6.046 0 10.947 4.901 10.947 10.947v9.171a9.355 9.355 0 01-9.356 9.356z" fill="#A36C22"/><path d="M29.474 21.053H27.79v-3.369c0-.465.377-.842.842-.842a4.21 4.21 0 10-3.648-2.105l-1.457.842a5.895 5.895 0 115.947 2.888v2.586zm-1.684 1.684h1.684v1.684H27.79v-1.684z" fill="#EACC97"/><path d="M8.421 44.632h5.053V48H8.42v-3.368z" fill="#F5BE9A"/><path d="M40.421 44.632h-6.737v-3.369h6.737v3.369z" fill="#519CDE"/><path d="M38.737 48h-5.053v-3.368h5.053V48z" fill="#F5BE9A"/><path d="M12.632 36.21h1.684V48h-1.684V36.21zm20.21 0h1.684V48h-1.684V36.21zm-13.473 1.685l-4.211-5.053 4.21-2.059v7.112zm8.421 0L32 32.842l-4.21-2.059v7.112z" fill="#519DDE"/></g><defs><clipPath id="clip0_9_204"><path fill="#fff" d="M0 0h48v48H0z"/></clipPath></defs></svg>