<svg width="57" height="57" fill="none" xmlns="http://www.w3.org/2000/svg"><g clip-path="url(#clip0_9_498)" fill="#6F2205"><path d="M.51 7.023c.383-.573.478-1.338.956-1.815a.717.717 0 011.147 0c.191.382 0 .86-.096 1.242-.095.286-.286.382-.573.382-.191.287-.382.573-.669.764-.382.383-1.147-.095-.764-.573zm5.638-3.822a13.043 13.043 0 011.625-1.624C8.346 1.099 9.11.526 9.779.526c.383 0 .574.477.287.669-.478.477-1.242.573-1.816.955-.668.382-1.146.86-1.72 1.433-.286.191-.573-.19-.382-.382zm8.6-2.293A10.415 10.415 0 0012.264.62c-.287 0-.287-.478 0-.478 1.147 0 3.44-.573 4.204.574.191.19-.095.477-.286.477-.478 0-.956-.19-1.434-.286zm3.632 5.351c.19-1.53.477-2.867-.287-4.3-.096-.191.095-.287.19-.096 1.052 1.434 1.53 3.058.67 4.682-.191.383-.67 0-.574-.286zm-4.97 6.88c.287-.765.86-1.338 1.338-2.007a19.105 19.105 0 011.816-2.102c.19-.191.573.095.382.382-.573.573-.956 1.242-1.433 1.911-.478.67-.86 1.53-1.434 2.102-.286.287-.86.096-.669-.286zM6.53 19.54c.67-1.72 2.294-3.344 3.632-4.586.286-.19.573.096.382.382a24.479 24.479 0 00-1.911 2.485c-.478.669-.86 1.433-1.434 2.006-.382.287-.764 0-.668-.286zm-3.535 8.505c-.096-1.72.573-3.44 1.147-4.969.095-.286.477-.19.477.096-.477 1.624-.668 3.249-.764 4.873-.096.478-.86.478-.86 0zm3.153 6.402c-.573-.477-1.146-1.146-1.624-1.72a.473.473 0 01.669-.668c.478.477 1.05.955 1.624 1.433.574.478 1.434.955 1.911 1.624.191.287-.095.67-.477.574-.765 0-1.53-.67-2.103-1.243zm5.16 1.816c-.382 0-.382-.669 0-.669.956-.096 1.816-.287 2.771-.478.86-.191 1.72-.669 2.676-.669.478 0 .669.67.191.86-1.625.86-3.918 1.051-5.638.956zm9.652-4.109l2.006-1.433c.669-.382 1.338-1.051 2.102-1.147.382 0 .478.382.382.669-.286.669-1.146.955-1.72 1.242-.764.478-1.624.86-2.388 1.338-.478.191-.765-.382-.383-.669zm6.975-4.778a12.17 12.17 0 012.389-2.102c.86-.573 2.102-1.338 3.153-1.147.478.096.573.574.19.86-.668.478-1.623.574-2.388.86-1.147.383-2.198 1.051-3.153 1.816-.096.191-.383-.096-.191-.287zM37.3 21.93c.764-.86 1.623-1.53 2.675-2.102 1.05-.574 2.389-1.243 3.535-1.052.383.096.383.67.096.765-.86.573-2.007.573-2.962.955-1.051.383-2.103 1.052-3.058 1.816-.191.191-.573-.096-.287-.382zm14.619-.096c-.382-.669-.669-1.242-1.242-1.72-.765-.478-1.911-.669-2.771-.669-.287 0-.287-.478 0-.478 1.815-.19 4.968.192 4.873 2.676-.096.382-.669.573-.86.191zm3.344 10.129c-.095-1.051.096-2.102.096-3.153-.096-1.338-.478-2.58-1.242-3.631-.096-.192.19-.287.286-.192 1.529 2.007 2.867 4.778 1.816 7.263-.287.477-.956.19-.956-.287zm-6.497 8.122c.382-.669.955-1.242 1.433-2.007.382-.669.573-1.433.669-2.197.095-.478.764-.478.764 0 .096 1.72-.478 3.917-2.102 4.873-.478.382-.956-.191-.764-.669zm-5.734 3.918c1.242-1.242 2.58-2.58 4.109-3.44.478-.287.764.382.382.669-1.338 1.05-2.293 2.77-3.918 3.535-.477.096-.955-.382-.573-.764zm.096 7.167c-.574-.287-.956-1.052-1.242-1.625-.287-.669-.383-1.433-.383-2.198 0-.477.67-.477.67 0 0 .67.19 1.242.477 1.816.287.478.765.86 1.051 1.338.287.382-.191.86-.573.669z"/><path d="M46.854 56.903c-2.197-1.338-4.682-2.198-6.975-3.345-1.051-.573-.096-2.102.956-1.624 1.91.86 3.917 1.624 5.733 2.77.095-.86.19-1.72.286-2.675.096-.382.096-1.05.478-1.338l.096-.095s0-.095.095-.095c.191-.192.574 0 .574.19.095.096.095.192.095.383.096.478 0 .955 0 1.529-.095 1.242-.191 2.389-.095 3.63.095.574-.67.956-1.243.67z"/></g><defs><clipPath id="clip0_9_498"><path fill="#fff" transform="matrix(0 1 1 0 0 0)" d="M0 0h57v57H0z"/></clipPath></defs></svg>