<svg width="20" height="20" fill="none" xmlns="http://www.w3.org/2000/svg"><path d="M17.27 3.131l1.214-.102-.098-1.168-3.322.278.28 3.322 1.168-.098-.122-1.455A8.778 8.778 0 0118.827 10a8.77 8.77 0 01-2.585 6.242A8.77 8.77 0 0110 18.827a8.77 8.77 0 01-6.242-2.585A8.77 8.77 0 011.173 10a8.77 8.77 0 012.585-6.242A8.77 8.77 0 0110 1.173V0a9.934 9.934 0 00-7.071 2.929A9.934 9.934 0 000 10a9.935 9.935 0 002.929 7.071A9.935 9.935 0 0010 20a9.934 9.934 0 007.071-2.929A9.935 9.935 0 0020 10a9.945 9.945 0 00-2.73-6.869z" fill="#EACC97"/><path d="M9.414 5.197V3.824a6.215 6.215 0 00-5.59 5.59h1.373v1.172H3.823a6.215 6.215 0 005.59 5.59v-1.373h1.173v1.373a6.215 6.215 0 005.59-5.59h-1.373V9.414h1.373a6.215 6.215 0 00-5.59-5.59v1.373H9.414zm1.172 5.076L8.38 12.129l-.755-.897 1.789-1.505V6.43h1.172v3.843z" fill="#EACC97"/></svg>