<svg width="48" height="48" fill="none" xmlns="http://www.w3.org/2000/svg"><path d="M24 48c13.255 0 24-10.745 24-24S37.255 0 24 0 0 10.745 0 24s10.745 24 24 24z" fill="#A36C22"/><path d="M24 0c-.428 0-.854.012-1.277.034C35.384.698 45.446 11.174 45.446 24S35.384 47.302 22.723 47.966c.423.022.849.034 1.277.034 13.255 0 24-10.745 24-24S37.255 0 24 0z" fill="#82561A"/><path d="M24 42.702c10.329 0 18.702-8.373 18.702-18.702 0-10.329-8.373-18.702-18.702-18.702C13.671 5.298 5.298 13.671 5.298 24c0 10.329 8.373 18.702 18.702 18.702z" fill="#F4FBFF"/><path d="M24 5.298c-.518 0-1.03.022-1.538.063 9.61.783 17.164 8.828 17.164 18.639 0 9.81-7.555 17.856-17.164 18.639a18.9 18.9 0 001.538.063c10.329 0 18.702-8.373 18.702-18.702 0-10.329-8.373-18.702-18.702-18.702z" fill="#DAF1F4"/><path d="M24 11.054a.724.724 0 01-.724-.724V9.267a.724.724 0 111.448 0v1.063c0 .4-.324.724-.724.724zm9.627 4.02a.724.724 0 01-.512-1.237l.752-.75a.724.724 0 111.024 1.024l-.752.751a.723.723 0 01-.512.212zm5.028 9.65h-1.063a.724.724 0 110-1.448h1.063a.724.724 0 110 1.448zm-4.332 10.379a.723.723 0 01-.513-.212l-.751-.752a.725.725 0 011.024-1.024l.752.751a.725.725 0 01-.512 1.237zm-10.402 4.276a.724.724 0 01-.724-.724v-1.063a.724.724 0 111.448 0v1.063c0 .4-.324.724-.724.724zm-10.379-4.332a.724.724 0 01-.512-1.237l.752-.751a.724.724 0 111.024 1.024l-.751.752a.722.722 0 01-.513.212zM10.33 24.646H9.267a.724.724 0 010-1.45h1.063a.724.724 0 010 1.45zm4.02-9.627a.722.722 0 01-.512-.213l-.752-.751a.725.725 0 011.024-1.025l.752.752a.725.725 0 01-.512 1.237z" fill="#2B4D66"/><path d="M24 24.724h-6.152a.724.724 0 010-1.448h5.428V14.06a.724.724 0 111.448 0V24c0 .4-.324.724-.724.724z" fill="#93B0D0"/><path d="M31.431 28.546a.721.721 0 01-.33-.08l-7.432-3.822a.724.724 0 11.662-1.288l7.432 3.821a.724.724 0 01-.332 1.369z" fill="#DA4A54"/><path d="M24 25.933a1.933 1.933 0 100-3.866 1.933 1.933 0 000 3.866z" fill="#365E7D"/></svg>