<svg width="48" height="48" fill="none" xmlns="http://www.w3.org/2000/svg"><g clip-path="url(#clip0_9_135)"><path d="M19.247 29.656l-5.1.33s-9.049-11.317-2.175-23.31c5.067-8.84 14.224-6.913 18.69-5.288 0 0 4.982-.469 5.86 7.207.878 7.675-1.645 17.167-7.184 22.157l-10.09-1.096z" fill="#414451"/><path d="M30.907 36.037l-3.031 5.774-5.854.697-5.08-2.123-.659-5.045 1.282-3.688.364-1.088a2.23 2.23 0 00.54-1.075c.064-.248.111-.5.14-.754.026-.206.048-.417.059-.636.058-1.219.011-2.44-.14-3.65 0 0 11.355-5.23 10.84 0-.514 5.229.5 5.8.5 5.8l1.039 5.788z" fill="#F5BE9A"/><path d="M16.9 35.854s5.764 2.855 14.492 0V48H18.931L16.9 35.854z" fill="#69B0EE"/><path d="M27.839 7.958s-.33 1.389-2.523 1.791c-1.02.212-2.02.51-2.99.89a10.028 10.028 0 00-5.683 5.248 12.422 12.422 0 00-.943 6.293s3.767 6.361 8.3 6.324c4.534-.037 8.37-6.105 9.03-8.152 0 0 1.207.09 1.81-1.719a7.172 7.172 0 00.43-2.544.99.99 0 00-.23-.608 1.65 1.65 0 00-1.755-.41s-4.094-1.63-5.446-7.113z" fill="#F5BE9A"/><path d="M29.873 30.246L25.776 48h15.791a1.892 1.892 0 001.892-1.892v-5.2a8.685 8.685 0 00-8.195-8.67l-2.095-.118a4.215 4.215 0 01-3.03-1.546l-.266-.328zm-11.733.06L22.227 48H6.433a1.892 1.892 0 01-1.892-1.892v-5.2a8.685 8.685 0 018.195-8.67l2.095-.118a4.214 4.214 0 003.03-1.546l.28-.268z" fill="#EEEFEE"/><path d="M35.18 34.023c-2.36 0-4.215 3.133-4.215 7.134a10.237 10.237 0 001.168 4.97c.211.379.467.73.76 1.049a.794.794 0 00.725-.522 4.639 4.639 0 01-.761-1.062 9.425 9.425 0 01-1.014-4.435c0-3.392 1.527-6.256 3.337-6.256 1.81 0 3.336 2.864 3.336 6.256a9.482 9.482 0 01-1.017 4.44c-.19.364-.43.7-.711 1a.773.773 0 00.684.57c.307-.338.574-.712.794-1.112a10.291 10.291 0 001.128-4.898c0-4-1.852-7.134-4.214-7.134z" fill="#BBBBCD"/><path d="M38.336 46.382a.796.796 0 01-.794.794.19.19 0 01-.07-.008.773.773 0 01-.685-.57.583.583 0 01-.035-.215.783.783 0 01.746-.786.147.147 0 01.044-.004.79.79 0 01.794.787v.002zm-4.664 0a.7.7 0 01-.053.272.794.794 0 01-.724.522h-.017a.793.793 0 01-.018-1.583h.018a.793.793 0 01.794.79z" fill="#575B6D"/><path d="M35.18 34.903a.439.439 0 01-.422-.32 5.012 5.012 0 00-1.756-2.43.439.439 0 01.503-.718 5.828 5.828 0 012.096 2.909.44.44 0 01-.422.558h.001zm-16.507-6.804c-.013.219-.035.43-.058.636a5.37 5.37 0 01-.14.754c-.762.61-5.516 4.751-5.256 13.004a.441.441 0 01-.426.456h-.013a.44.44 0 01-.44-.425 17.957 17.957 0 016.333-14.425z" fill="#BBBBCD"/><path d="M12.693 46.437a2.194 2.194 0 100-4.39 2.194 2.194 0 000 4.39z" fill="#575B6D"/><path d="M12.694 45.437a1.195 1.195 0 100-2.39 1.195 1.195 0 000 2.39z" fill="#BBBBCD"/></g><defs><clipPath id="clip0_9_135"><path fill="#fff" d="M0 0h48v48H0z"/></clipPath></defs></svg>