<svg width="20" height="20" fill="none" xmlns="http://www.w3.org/2000/svg"><path d="M9.992 0c-4.2 0-7.617 3.456-7.617 7.656a7.56 7.56 0 001.527 4.576L9.992 20l6.097-7.777a7.55 7.55 0 001.52-4.567C17.61 3.456 14.192 0 9.992 0zm0 11.758a4.107 4.107 0 01-4.101-4.102 4.107 4.107 0 014.101-4.101 4.107 4.107 0 014.102 4.101 4.107 4.107 0 01-4.102 4.102z" fill="#EACC97"/><path d="M9.992 4.727a2.933 2.933 0 00-2.93 2.93 2.933 2.933 0 002.93 2.929 2.933 2.933 0 002.93-2.93 2.933 2.933 0 00-2.93-2.93z" fill="#EACC97"/></svg>