<svg width="35" height="35" viewBox="0 0 35 35" fill="none" xmlns="http://www.w3.org/2000/svg">
<rect width="34.6667" height="34.7586" rx="5" fill="#EACC97"/>
<g clip-path="url(#clip0_13_1257)">
<path d="M15.2895 10.0977C15.8097 9.87902 16.0278 9.25654 15.7929 8.75182L14.9707 7.01895C14.7358 6.53122 14.1653 6.31234 13.6619 6.53122C12.2357 7.13688 11.0108 7.92761 10.0376 8.88658C8.84621 10.0136 8.0408 11.3091 7.60453 12.7391C7.16826 14.1861 6.93335 16.1544 6.93335 18.6611V23.8261C6.93335 24.3813 7.3864 24.8355 7.94012 24.8355H14.5345C15.0882 24.8355 15.5412 24.3813 15.5412 23.8261V17.2143C15.5412 16.6589 15.0882 16.2048 14.5345 16.2048H11.3799C11.4135 14.5054 11.8162 13.1429 12.5545 12.1164C13.1585 11.2924 14.0646 10.6194 15.2895 10.0977Z" fill="white"/>
<path d="M27.1358 10.0979C27.656 9.87921 27.874 9.25673 27.6392 8.75201L26.817 7.03613C26.5821 6.54823 26.0116 6.32952 25.5082 6.54823C24.0988 7.1539 22.8905 7.94462 21.9007 8.88677C20.7091 10.0308 19.8871 11.3262 19.4507 12.7563C19.0144 14.1693 18.7964 16.1379 18.7964 18.6615V23.8265C18.7964 24.3817 19.2495 24.8359 19.8032 24.8359H26.3975C26.9513 24.8359 27.4043 24.3817 27.4043 23.8265V17.2146C27.4043 16.6593 26.9513 16.2052 26.3975 16.2052H23.2262C23.2598 14.5058 23.6627 13.1432 24.4008 12.1168C25.0049 11.2926 25.9109 10.6196 27.1358 10.0979Z" fill="white"/>
</g>
<defs>
<clipPath id="clip0_13_1257">
<rect width="20.8" height="20.8552" fill="white" transform="translate(6.93335 5.21387)"/>
</clipPath>
</defs>
</svg>
