<svg width="65" height="65" viewBox="0 0 65 65" fill="none" xmlns="http://www.w3.org/2000/svg">
<rect width="65" height="65" rx="5" fill="url(#paint0_linear_13_155)" fill-opacity="0.8"/>
<rect width="65" height="65" rx="5" fill="url(#paint1_linear_13_155)" fill-opacity="0.2"/>
<path d="M27.6207 43L20 39.1896V29.8103L27.6207 33.6206V43Z" fill="#A36C22"/>
<path d="M27.6207 43L35.2414 39.1896V29.8103L27.6207 33.6206V43Z" fill="#6F2205"/>
<path d="M20 29.8103L27.3276 26L35.2414 29.8103L27.6207 33.6207L20 29.8103Z" fill="#EACC97"/>
<path d="M37.8103 37L30.1896 33.1896V23.8103L37.8103 27.6206V37Z" fill="#A36C22"/>
<path d="M37.8103 37L45.431 33.1896V23.8103L37.8103 27.6206V37Z" fill="#6F2205"/>
<path d="M30.1896 23.8103L37.5172 20L45.431 23.8103L37.8103 27.6207L30.1896 23.8103Z" fill="#EACC97"/>
<defs>
<linearGradient id="paint0_linear_13_155" x1="6.09375" y1="16.6562" x2="68.6563" y2="90.5937" gradientUnits="userSpaceOnUse">
<stop stop-color="white"/>
<stop offset="1" stop-color="white" stop-opacity="0"/>
</linearGradient>
<linearGradient id="paint1_linear_13_155" x1="16.4531" y1="59.3125" x2="65" y2="5.28125" gradientUnits="userSpaceOnUse">
<stop stop-color="#EACC97"/>
<stop offset="1" stop-color="white" stop-opacity="0"/>
</linearGradient>
</defs>
</svg>
