<svg width="65" height="65" viewBox="0 0 65 65" fill="none" xmlns="http://www.w3.org/2000/svg">
<rect width="65" height="65" rx="5" fill="url(#paint0_linear_13_125)" fill-opacity="0.8"/>
<rect width="65" height="65" rx="5" fill="url(#paint1_linear_13_125)" fill-opacity="0.2"/>
<g clip-path="url(#clip0_13_125)">
<path d="M27.8052 45.3535C29.8744 46.2895 30.7814 50.0001 30.7814 50.0001L45.9243 49.9584C45.6404 49.3691 45.3179 48.7992 44.9588 48.2525C44.6731 47.6678 44.4336 47.0617 44.2425 46.4397C43.8878 45.2397 43.6423 44.0101 43.5087 42.7659C43.2842 40.8543 43.5724 38.9173 44.3439 37.1539C45.024 35.603 46.2049 34.3744 47.1052 32.9545C47.9978 31.5681 48.4785 29.9567 48.4914 28.3079C48.5252 26.6379 48.3204 24.9717 47.8831 23.3596C47.311 21.4067 46.1173 19.6937 44.4833 18.4808C41.4914 16.1345 38.4391 14.8226 34.5746 15.0194C32.6405 15.154 30.7189 15.4299 28.825 15.8449C26.7624 16.2601 24.5785 17.0313 23.0983 18.5942C22.0885 19.6732 21.3084 20.9461 20.8052 22.3356C20.5693 23.0268 20.3774 23.7322 20.2307 24.4476C19.9836 25.2278 19.6855 25.9908 19.3382 26.7317C19.236 26.9568 19.1914 27.2038 19.2084 27.4504C19.3243 28.2856 20.5771 28.6446 20.5873 29.5058C20.5739 29.696 20.5154 29.8803 20.4165 30.0434C19.6821 31.5948 18.7809 33.0616 17.7288 34.4178C17.4802 34.7226 16.9757 35.323 17.0384 35.7539C17.0831 36.0598 17.45 36.3139 17.6763 36.4822C18.159 36.8407 19.1421 37.0857 19.2646 37.7326C19.328 38.062 19.2881 38.403 19.1505 38.7089C18.8168 39.4132 18.4469 39.7885 18.7094 40.0094C18.9719 40.2302 19.6749 40.7607 19.6749 40.7607C19.6749 40.7607 19.0069 41.6139 19.3768 41.8758C19.8354 42.2017 20.4196 42.352 20.5752 42.962C20.6216 43.4455 20.5732 43.9333 20.4328 44.3983C20.3857 44.8532 20.4452 45.3129 20.6066 45.7409C20.8263 46.5951 21.6804 47.1243 22.5431 46.9406C24.3245 46.5071 26.0811 45.9773 27.8052 45.3535Z" fill="#6F2205"/>
<path d="M40.4486 40.6165C39.7039 40.6164 39.0331 40.1659 38.7511 39.4766C38.587 39.079 37.9999 38.5111 36.9052 37.6898C35.1335 36.3622 34.6827 33.9877 35.6983 31.3373L36.0604 30.4014L46.1518 32.2588L44.1761 34.2381H44.1665C43.2746 35.1451 42.4569 36.1969 42.4569 37.3277C42.4669 38.0332 42.3602 38.7354 42.1413 39.406C41.8996 40.1328 41.2176 40.6214 40.4517 40.6165H40.4486Z" fill="#2C3E50"/>
<path d="M41.1293 34.828C40.4071 34.8297 39.6894 34.7124 39.0052 34.481C38.5194 34.3165 38.0526 34.1003 37.6131 33.8359C36.5518 33.1598 35.5773 32.3565 34.7111 31.4439C34.2696 30.9963 33.7134 30.679 33.1035 30.5266C32.785 30.4524 32.4604 30.4074 32.1337 30.392C32.0131 30.3854 31.8779 30.3824 31.7421 30.3824C30.3992 30.4349 29.0613 30.576 27.737 30.8048L26.9157 30.9255C26.5559 30.9764 26.193 31.0026 25.8295 31.0039C25.7155 31.0039 25.6044 31.0039 25.4976 30.9955C24.964 30.983 24.436 30.8823 23.9353 30.6974C22.4751 30.1401 21.461 28.7983 21.3236 27.2414L21.3109 27.1558C21.2468 26.6978 21.2339 26.2341 21.2723 25.7733C21.2871 25.4268 21.3311 25.0822 21.4038 24.7432C21.4195 24.6744 21.6555 23.6714 21.8395 23.0632C21.8818 22.9274 21.9101 22.8369 21.9385 22.7584C22.0839 22.3728 22.2336 22.0246 22.3874 21.7102C22.8014 20.8716 23.3372 20.0988 23.9775 19.4171C24.636 18.7555 25.4188 18.2304 26.2809 17.8723C26.7094 17.6843 27.1491 17.523 27.5976 17.3895C28.0713 17.2477 28.5631 17.1246 29.0652 17.0245C29.6234 16.9092 30.2081 16.7982 30.7995 16.6938C31.167 16.6256 31.5496 16.5634 31.9316 16.5073C32.3763 16.4391 32.8211 16.383 33.2718 16.3329C33.7075 16.287 34.1287 16.249 34.5506 16.2297C34.5765 16.2297 34.6109 16.2249 34.6477 16.2231C34.8812 16.2128 35.1154 16.2068 35.3423 16.2068C35.5233 16.2068 35.6989 16.2134 35.8703 16.2195C36.3186 16.2347 36.7656 16.2775 37.2087 16.3474C38.521 16.5528 39.7891 16.9781 40.9598 17.6056C41.2778 17.7685 41.5868 17.9447 41.8921 18.1396C42.321 18.3979 42.7922 18.7197 43.306 19.1051C43.4496 19.2108 43.5908 19.3194 43.7381 19.4352C44.0122 19.6433 44.2724 19.8691 44.5171 20.1111C45.5677 21.0777 46.3302 22.3163 46.7203 23.6895C46.9619 24.5597 47.1235 25.45 47.2031 26.3495C47.2459 26.816 47.2694 27.2414 47.2755 27.656C47.2845 27.8473 47.2845 28.0585 47.2845 28.2758C47.2826 28.5267 47.2658 28.7774 47.2344 29.0264C47.191 29.5147 47.0926 29.9965 46.9412 30.4626C46.7416 31.1122 46.4554 31.7319 46.0903 32.305C45.4262 33.316 44.4576 34.0896 43.3247 34.5136C42.6096 34.7158 41.8706 34.8215 41.1275 34.828H41.1293Z" fill="#2C3E50"/>
<path d="M36.8268 31.77C36.4285 32.808 35.7526 35.3183 37.6294 36.7243C39.0342 37.778 39.6207 38.423 39.8669 39.0174C39.9543 39.2548 40.1804 39.4125 40.4333 39.4125C40.6862 39.4125 40.9123 39.2548 40.9996 39.0174C41.1762 38.472 41.2609 37.901 41.2501 37.3278C41.2501 35.5898 42.5052 34.1597 43.6578 33.0433C43.6638 33.0433 43.6699 33.0373 43.6759 33.0312L36.8268 31.77Z" fill="#DF4D60"/>
<path d="M46.0716 27.6727C46.0656 27.2623 46.0414 26.858 46.0052 26.4658C45.9311 25.6373 45.7816 24.8172 45.5587 24.0158C45.2248 22.8409 44.5684 21.7831 43.6638 20.9623C43.453 20.7553 43.2293 20.5618 42.994 20.383C42.8552 20.2744 42.7225 20.1718 42.5837 20.0692C42.1311 19.7313 41.6845 19.4235 41.244 19.158C40.9604 18.977 40.6828 18.8201 40.3992 18.6753C39.3466 18.1099 38.2062 17.7264 37.0259 17.5408C36.6284 17.4778 36.2273 17.4395 35.825 17.4261C35.6681 17.4201 35.5052 17.4141 35.3423 17.4141C35.1311 17.4141 34.9138 17.4201 34.6966 17.4322C34.6664 17.4322 34.6363 17.4382 34.6061 17.4382C34.2078 17.4563 33.8095 17.4925 33.4052 17.5348C32.9707 17.583 32.5423 17.6373 32.1078 17.7037C31.7397 17.758 31.3716 17.8184 31.0095 17.8848C30.4302 17.9873 29.8569 18.096 29.3018 18.2106C28.819 18.3072 28.3664 18.4218 27.944 18.5485C27.5434 18.6672 27.1504 18.8103 26.7673 18.977C26.0499 19.2707 25.3977 19.7034 24.8483 20.2503C24.2916 20.8419 23.8259 21.5131 23.4664 22.2416C23.3216 22.5373 23.1888 22.8511 23.0681 23.171C23.044 23.2373 23.0199 23.3158 22.9897 23.4123C22.8147 23.9916 22.5794 24.9934 22.5794 24.9934C22.5187 25.2815 22.4823 25.5742 22.4707 25.8684C22.437 26.2669 22.4511 26.668 22.513 27.0632V27.0692C22.5921 28.1877 23.3087 29.1605 24.3535 29.5675C24.7385 29.7085 25.1444 29.7839 25.5544 29.7908C25.9516 29.808 26.3496 29.7877 26.7431 29.7304C28.5426 29.393 30.3677 29.2113 32.1983 29.1873C32.6009 29.2072 33.0008 29.2638 33.3931 29.3563C34.2118 29.5593 34.959 29.983 35.5535 30.5813C36.3545 31.4261 37.2541 32.1716 38.2328 32.802C39.6658 33.6715 41.4069 33.8721 43 33.3511C43.8439 33.0083 44.5651 32.4196 45.0699 31.6615C45.3818 31.1719 45.6254 30.642 45.794 30.0865C45.9206 29.6969 46.0016 29.2939 46.0354 28.8856C46.0617 28.6835 46.0758 28.48 46.0776 28.2761C46.0776 28.071 46.0776 27.8718 46.0716 27.6727Z" fill="#FB7B76"/>
<path d="M25.5604 25.2587C25.5574 26.2573 24.7486 27.0661 23.75 27.0691H22.513V27.063C22.4511 26.6679 22.437 26.2667 22.4707 25.8682C22.4945 25.8632 22.5189 25.8612 22.5431 25.8622H23.75C24.0833 25.8622 24.3535 25.592 24.3535 25.2587C24.3535 24.9254 24.6237 24.6553 24.9569 24.6553C25.2902 24.6553 25.5604 24.9254 25.5604 25.2587Z" fill="#FF5364"/>
<path d="M25.5604 28.8791V29.7299C25.5614 29.7502 25.5594 29.7706 25.5544 29.7903C25.1444 29.7835 24.7385 29.708 24.3535 29.567V28.8791C24.3535 28.5458 24.6237 28.2756 24.957 28.2756C25.2902 28.2756 25.5604 28.5458 25.5604 28.8791Z" fill="#FF5364"/>
<path d="M29.181 27.6726H28.5776C27.5777 27.6726 26.7672 26.8621 26.7672 25.8623V25.2588C26.7672 24.259 27.5777 23.4485 28.5776 23.4485H29.181C29.5143 23.4485 29.7844 23.7187 29.7844 24.0519C29.7844 24.3852 29.5143 24.6554 29.181 24.6554H28.5776C28.2443 24.6554 27.9741 24.9256 27.9741 25.2588V25.8623C27.9741 26.1956 28.2443 26.4657 28.5776 26.4657H29.181C29.5143 26.4657 29.7844 26.7359 29.7844 27.0692C29.7844 27.4024 29.5143 27.6726 29.181 27.6726Z" fill="#FF5364"/>
<path d="M26.1638 22.8447C26.1638 23.1779 25.8936 23.4481 25.5603 23.4481H23.1948C23.1248 23.4484 23.0553 23.4361 22.9896 23.4119C23.0198 23.3153 23.0439 23.2369 23.0681 23.1705C23.1888 22.8507 23.3215 22.5369 23.4663 22.2412H25.5603C25.8936 22.2412 26.1638 22.5114 26.1638 22.8447Z" fill="#FF5364"/>
<path d="M29.181 21.638C29.181 21.9713 28.9108 22.2414 28.5776 22.2414C27.579 22.2385 26.7702 21.4297 26.7672 20.4311V18.9768C27.1503 18.8101 27.5433 18.667 27.9439 18.5483C27.9632 18.6089 27.9734 18.6719 27.9741 18.7354V20.4311C27.9741 20.7644 28.2443 21.0345 28.5776 21.0345C28.9108 21.0345 29.181 21.3047 29.181 21.638Z" fill="#FF5364"/>
<path d="M31.5948 26.4654H30.9914C30.6581 26.4654 30.3879 26.1952 30.3879 25.862C30.3879 25.5287 30.6581 25.2585 30.9914 25.2585H31.5948C31.9281 25.2585 32.1983 24.9883 32.1983 24.6551V23.4482C32.1983 23.1149 32.4685 22.8447 32.8017 22.8447C33.135 22.8447 33.4052 23.1149 33.4052 23.4482V24.6551C33.4052 25.6549 32.5947 26.4654 31.5948 26.4654Z" fill="#FF5364"/>
<path d="M34.6121 23.4484C34.2788 23.4484 34.0086 23.1782 34.0086 22.8449V22.2415C34.0086 21.9082 33.7385 21.638 33.4052 21.638H32.1983C31.865 21.638 31.5948 21.9082 31.5948 22.2415V22.8449C31.5948 23.1782 31.3247 23.4484 30.9914 23.4484C30.6581 23.4484 30.3879 23.1782 30.3879 22.8449V22.2415C30.3879 21.2417 31.1985 20.4312 32.1983 20.4312H33.4052C34.405 20.4312 35.2155 21.2417 35.2155 22.2415V22.8449C35.2155 23.1782 34.9453 23.4484 34.6121 23.4484Z" fill="#FF5364"/>
<path d="M32.1982 18.0174V18.6209C32.1982 18.9541 31.9281 19.2243 31.5948 19.2243C31.2615 19.2243 30.9913 18.9541 30.9913 18.6209V18.0174C30.991 17.9725 30.9971 17.9278 31.0094 17.8846C31.3715 17.8183 31.7396 17.7579 32.1077 17.7036C32.1683 17.7969 32.1998 17.9062 32.1982 18.0174Z" fill="#FF5364"/>
<path d="M34.612 17.474V18.6205C34.612 18.9538 34.3419 19.224 34.0086 19.224C33.6753 19.224 33.4052 18.9538 33.4052 18.6205V17.5343C33.8095 17.4921 34.2077 17.4558 34.606 17.4377C34.6109 17.4491 34.613 17.4616 34.612 17.474Z" fill="#FF5364"/>
<path d="M38.2327 20.4312C38.2327 20.7645 37.9626 21.0346 37.6293 21.0346H36.4224C36.0891 21.0346 35.819 20.7645 35.819 20.4312V17.4683C35.818 17.4539 35.82 17.4395 35.825 17.426C36.2273 17.4394 36.6283 17.4777 37.0259 17.5407V19.8277H37.6293C37.9626 19.8277 38.2327 20.0979 38.2327 20.4312Z" fill="#FF5364"/>
<path d="M33.4051 28.2758V29.2413C33.4044 29.2798 33.4004 29.3182 33.3931 29.356C33.0008 29.2635 32.6008 29.2069 32.1982 29.187V28.2758C32.1982 27.9425 32.4684 27.6724 32.8017 27.6724C33.135 27.6724 33.4051 27.9425 33.4051 28.2758Z" fill="#FF5364"/>
<path d="M37.0258 28.276H36.4224C35.4226 28.276 34.6121 27.4655 34.6121 26.4657V25.8622C34.6121 25.529 34.8822 25.2588 35.2155 25.2588C35.5488 25.2588 35.819 25.529 35.819 25.8622V26.4657C35.819 26.799 36.0891 27.0691 36.4224 27.0691H37.0258C37.3591 27.0691 37.6293 27.3393 37.6293 27.6726C37.6293 28.0059 37.3591 28.276 37.0258 28.276Z" fill="#FF5364"/>
<path d="M39.4397 25.8619H38.8362C37.8364 25.8619 37.0259 25.0514 37.0259 24.0516C37.0259 23.0517 37.8364 22.2412 38.8362 22.2412H39.4397C39.7729 22.2412 40.0431 22.5114 40.0431 22.8447C40.0431 23.1779 39.7729 23.4481 39.4397 23.4481H38.8362C38.5029 23.4481 38.2328 23.7183 38.2328 24.0516C38.2328 24.3848 38.5029 24.655 38.8362 24.655H39.4397C39.7729 24.655 40.0431 24.9252 40.0431 25.2585C40.0431 25.5917 39.7729 25.8619 39.4397 25.8619Z" fill="#FF5364"/>
<path d="M41.25 19.2244V21.0348C41.25 21.3681 40.9798 21.6382 40.6465 21.6382C40.3133 21.6382 40.0431 21.3681 40.0431 21.0348V19.2244C40.0436 18.9873 40.1829 18.7725 40.3991 18.6753C40.6827 18.8201 40.9603 18.977 41.2439 19.1581C41.2492 19.1798 41.2513 19.2021 41.25 19.2244Z" fill="#FF5364"/>
<path d="M43.6638 20.962V22.2413C43.6608 23.2399 42.852 24.0486 41.8535 24.0516C41.5202 24.0516 41.25 23.7814 41.25 23.4482C41.25 23.1149 41.5202 22.8447 41.8535 22.8447C42.1867 22.8447 42.4569 22.5745 42.4569 22.2413V20.437C42.4573 20.3036 42.5019 20.1742 42.5836 20.0688C42.7224 20.1714 42.8552 20.274 42.994 20.3826C43.2293 20.5614 43.453 20.7549 43.6638 20.962Z" fill="#FF5364"/>
<path d="M40.6466 28.8795H40.0431C39.7099 28.8795 39.4397 28.6093 39.4397 28.276C39.4397 27.9428 39.7099 27.6726 40.0431 27.6726H40.6466C40.9799 27.6726 41.25 27.4024 41.25 27.0691V25.8622C41.25 25.529 41.5202 25.2588 41.8535 25.2588C42.1868 25.2588 42.4569 25.529 42.4569 25.8622V27.0691C42.4569 28.069 41.6464 28.8795 40.6466 28.8795Z" fill="#FF5364"/>
<path d="M42.4568 30.6899C42.4568 31.0231 42.1866 31.2933 41.8534 31.2933H40.043C39.7097 31.2933 39.4396 31.5635 39.4396 31.8968V33.1037C39.4393 33.1845 39.4229 33.2646 39.3913 33.339C38.987 33.202 38.5985 33.0219 38.2327 32.8019V31.8968C38.2356 30.8982 39.0444 30.0894 40.043 30.0864H41.8534C42.0134 30.0864 42.1669 30.15 42.2801 30.2632C42.3932 30.3763 42.4568 30.5298 42.4568 30.6899Z" fill="#FF5364"/>
<path d="M46.0716 27.6725H44.2673C43.934 27.6725 43.6638 27.4023 43.6638 27.069C43.6638 26.7358 43.934 26.4656 44.2673 26.4656H46.0052C46.0414 26.8578 46.0656 27.2621 46.0716 27.6725Z" fill="#FF5364"/>
<path d="M46.0354 28.8855C46.0016 29.2938 45.9206 29.6968 45.794 30.0864H44.2673C43.934 30.0864 43.6638 29.8162 43.6638 29.4829C43.6638 29.1497 43.934 28.8795 44.2673 28.8795H45.9509C45.9792 28.8783 46.0075 28.8803 46.0354 28.8855Z" fill="#FF5364"/>
</g>
<defs>
<linearGradient id="paint0_linear_13_125" x1="6.09375" y1="16.6562" x2="68.6563" y2="90.5937" gradientUnits="userSpaceOnUse">
<stop stop-color="white"/>
<stop offset="1" stop-color="white" stop-opacity="0"/>
</linearGradient>
<linearGradient id="paint1_linear_13_125" x1="16.4531" y1="59.3125" x2="65" y2="5.28125" gradientUnits="userSpaceOnUse">
<stop stop-color="#EACC97"/>
<stop offset="1" stop-color="white" stop-opacity="0"/>
</linearGradient>
<clipPath id="clip0_13_125">
<rect width="35" height="35" fill="white" transform="translate(15 15)"/>
</clipPath>
</defs>
</svg>
