<svg width="65" height="65" viewBox="0 0 65 65" fill="none" xmlns="http://www.w3.org/2000/svg">
<rect width="65" height="65" rx="5" fill="url(#paint0_linear_13_84)" fill-opacity="0.8"/>
<rect width="65" height="65" rx="5" fill="url(#paint1_linear_13_84)" fill-opacity="0.2"/>
<g clip-path="url(#clip0_13_84)">
<path d="M44.2148 49.9999H38.4368C37.838 49.9999 37.3526 49.5145 37.3526 48.9157V39.6278C37.3526 39.4564 37.4916 39.3174 37.663 39.3174H44.9885C45.1599 39.3174 45.2989 39.4564 45.2989 39.6278V48.9157C45.299 49.5145 44.8136 49.9999 44.2148 49.9999Z" fill="#E5F9F6"/>
<path d="M44.9887 39.3174H41.3986V49.9999H44.215C44.8137 49.9999 45.2991 49.5145 45.2991 48.9157V39.6278C45.2991 39.4564 45.1602 39.3174 44.9887 39.3174Z" fill="#D6E5E2"/>
<path d="M37.3527 42.626V48.9159C37.3527 49.5147 37.8381 50.0001 38.4369 50.0001H44.215C44.8137 50.0001 45.2991 49.5147 45.2991 48.9159V42.626H37.3527V42.626Z" fill="#A36C22"/>
<path d="M28.191 25.613C28.191 25.613 28.5897 25.2113 28.5897 23.3495C28.5897 20.6473 27.5916 18.6992 27.5916 18.6992H24.1529C24.1529 18.6992 23.1548 20.6473 23.1548 23.3495C23.1548 25.2113 23.5534 25.613 23.5534 25.613L20.4845 28.0565C19.9893 28.4507 19.7009 29.0491 19.7009 29.682V48.7695C19.7009 49.4489 20.2517 49.9997 20.9311 49.9997H30.8133C31.4928 49.9997 32.0435 49.4489 32.0435 48.7695V29.682C32.0435 29.0491 31.7551 28.4507 31.26 28.0565L28.191 25.613Z" fill="#A36C22"/>
<path d="M31.2599 28.0565L28.191 25.613C28.191 25.613 28.5896 25.2113 28.5896 23.3495C28.5896 20.6473 27.5915 18.6992 27.5915 18.6992H24.6492C24.6492 21.3421 24.6492 24.434 24.6492 24.4445C24.6423 26.034 25.3633 26.4989 26.6068 27.489L27.3196 28.0566C27.8147 28.4508 28.1031 29.0492 28.1031 29.682V49.9998H30.8132C31.4927 49.9998 32.0434 49.449 32.0434 48.7696V29.682C32.0434 29.0491 31.755 28.4507 31.2599 28.0565Z" fill="#6F2205"/>
<path d="M32.0439 30.9175H19.7009V47.4174H32.0439V30.9175Z" fill="#4A4256"/>
<path d="M32.0435 30.9175H28.1031V47.4174H32.0435V30.9175Z" fill="#352F3F"/>
<path d="M28.6655 35.528C26.7813 34.6874 24.9673 34.6855 23.0787 35.5281C22.8556 35.6276 22.5932 35.5417 22.4686 35.3316C22.3123 35.0679 22.1559 34.8041 21.9995 34.5403C21.853 34.2931 21.9533 33.9736 22.2142 33.8528C24.644 32.7283 27.0992 32.7279 29.53 33.8528C29.7909 33.9736 29.8913 34.2931 29.7447 34.5403C29.5884 34.8041 29.432 35.0678 29.2757 35.3316C29.1511 35.5417 28.8886 35.6275 28.6655 35.528Z" fill="#EFEFEF"/>
<path d="M25.8718 41.735C27.5715 41.735 28.9493 40.7905 28.9493 39.6253C28.9493 38.4602 27.5715 37.5156 25.8718 37.5156C24.1721 37.5156 22.7943 38.4602 22.7943 39.6253C22.7943 40.7905 24.1721 41.735 25.8718 41.735Z" fill="#EFEFEF"/>
<path d="M29.0642 44.8691H22.6799C22.3881 44.8691 22.1516 44.6325 22.1516 44.3408C22.1516 44.049 22.3881 43.8125 22.6799 43.8125H29.0642C29.356 43.8125 29.5925 44.049 29.5925 44.3408C29.5925 44.6325 29.356 44.8691 29.0642 44.8691Z" fill="#EFEFEF"/>
<path d="M28.5875 23.1622C28.5432 20.558 27.5915 18.6992 27.5915 18.6992H24.1529C24.1529 18.6992 23.2013 20.5579 23.1569 23.1622H28.5875Z" fill="#4A4256"/>
<path d="M28.5875 23.1622C28.5459 20.721 27.7072 18.9349 27.6022 18.7208C27.6007 18.7178 27.6 18.7162 27.5988 18.7138C27.5972 18.7106 27.5953 18.7068 27.5943 18.7048C27.5925 18.7011 27.5915 18.6992 27.5915 18.6992H24.6492C24.6492 20.2774 24.6492 22.0155 24.6492 23.1622H28.5875Z" fill="#352F3F"/>
<path d="M27.9425 19.2862H23.8019C23.6188 19.2862 23.4703 19.1377 23.4703 18.9546V15.3316C23.4703 15.1485 23.6188 15 23.8019 15H27.9425C28.1256 15 28.2741 15.1485 28.2741 15.3316V18.9545C28.2741 19.1377 28.1256 19.2862 27.9425 19.2862Z" fill="#4A4256"/>
<path d="M28.2739 16.3369H23.4703V17.4658H28.2739V16.3369Z" fill="#EFEFEF"/>
<path d="M45.2991 48.9159V42.626H41.3986V50.0001H44.215C44.8137 50.0001 45.2991 49.5147 45.2991 48.9159Z" fill="#6F2205"/>
<path d="M44.2148 48.2767H38.4368C37.838 48.2767 37.3526 48.2909 37.3526 47.6921V48.916C37.3526 49.5148 37.838 50.0002 38.4368 50.0002H44.2148C44.8136 50.0002 45.299 49.5148 45.299 48.916V47.6921C45.299 48.291 44.8136 48.2767 44.2148 48.2767Z" fill="#D7E0DC"/>
<path d="M44.215 48.2766H41.3986V50.0002H44.215C44.5732 50.0002 44.8899 49.8257 45.0872 49.5579C45.1167 49.5179 45.1444 49.4767 45.1682 49.4328C45.1849 49.4021 45.2002 49.3704 45.2139 49.338C45.2304 49.299 45.2439 49.2584 45.2558 49.2172C45.2723 49.1602 45.2844 49.1015 45.2913 49.0411C45.296 49.0001 45.2991 48.9584 45.2991 48.916V47.6921C45.2991 48.2909 44.8137 48.2766 44.215 48.2766Z" fill="#C9D1CD"/>
<path d="M29.5301 33.8531C29.0553 33.6333 28.5794 33.4572 28.1031 33.3232V35.3019C28.29 35.3691 28.4774 35.4443 28.6655 35.5282C28.8886 35.6278 29.1511 35.542 29.2757 35.3318C29.432 35.068 29.5883 34.8043 29.7447 34.5406C29.8914 34.2933 29.791 33.9738 29.5301 33.8531Z" fill="#DEE0E2"/>
<path d="M28.1031 38.1731V41.0777C28.6273 40.6994 28.9496 40.1883 28.9496 39.6254C28.9496 39.0624 28.6273 38.5514 28.1031 38.1731Z" fill="#DEE0E2"/>
</g>
<defs>
<linearGradient id="paint0_linear_13_84" x1="6.09375" y1="16.6562" x2="68.6563" y2="90.5937" gradientUnits="userSpaceOnUse">
<stop stop-color="white"/>
<stop offset="1" stop-color="white" stop-opacity="0"/>
</linearGradient>
<linearGradient id="paint1_linear_13_84" x1="16.4531" y1="59.3125" x2="65" y2="5.28125" gradientUnits="userSpaceOnUse">
<stop stop-color="#EACC97"/>
<stop offset="1" stop-color="white" stop-opacity="0"/>
</linearGradient>
<clipPath id="clip0_13_84">
<rect width="35" height="35" fill="white" transform="translate(15 15)"/>
</clipPath>
</defs>
</svg>
