<svg width="65" height="65" viewBox="0 0 65 65" fill="none" xmlns="http://www.w3.org/2000/svg">
<rect width="65" height="65" rx="5" fill="url(#paint0_linear_13_185)" fill-opacity="0.8"/>
<rect width="65" height="65" rx="5" fill="url(#paint1_linear_13_185)" fill-opacity="0.2"/>
<g clip-path="url(#clip0_13_185)">
<path d="M34.3229 23.0208H20.4687C19.865 23.0208 19.375 22.5308 19.375 21.9271V19.0104C19.375 16.7981 21.1731 15 23.3854 15H31.4062C33.6185 15 35.4167 16.7981 35.4167 19.0104V21.9271C35.4167 22.5308 34.9267 23.0208 34.3229 23.0208Z" fill="#A36C22"/>
<path d="M35.7812 47.0833H19.0104C16.7981 47.0833 15 45.2851 15 43.0728V24.8437C15 22.6314 16.7981 20.8333 19.0104 20.8333H35.7812C37.9935 20.8333 39.7917 22.6314 39.7917 24.8437V43.0728C39.7917 45.2851 37.9935 47.0833 35.7812 47.0833Z" fill="#ECEFF1"/>
<path d="M25.5729 39.7917H15V28.125H25.5729C27.7852 28.125 29.5833 29.9231 29.5833 32.1354V35.7812C29.5833 37.9935 27.7852 39.7917 25.5729 39.7917Z" fill="#A36C22"/>
<path d="M27.3958 15H23.3854C21.1731 15 19.375 16.7981 19.375 19.0104V20.8333H27.3958V15Z" fill="#6F2205"/>
<path d="M27.3958 39.3526C26.849 39.6326 26.2292 39.7916 25.5729 39.7916H15V43.0728C15 45.2851 16.7981 47.0833 19.0104 47.0833H27.3958V39.3526ZM27.3958 20.8333H19.375H19.0104C16.7981 20.8333 15 22.6314 15 24.8437V28.1249H25.5729C26.2292 28.1249 26.849 28.2824 27.3958 28.5639V20.8333Z" fill="#CDD0D2"/>
<path d="M25.5729 28.125H15V39.7917H25.5729C26.2292 39.7917 26.849 39.6327 27.3958 39.3527V28.564C26.849 28.2825 26.2292 28.125 25.5729 28.125Z" fill="#6F2205"/>
<path d="M41.9791 32.5C37.5603 32.5 33.9583 36.1167 33.9583 40.55C33.9583 42.825 35.0374 45.0708 36.8749 46.6458V47.4479C36.8749 48.8479 38.027 50 39.427 50H44.5312C45.9312 50 47.0832 48.8479 47.0832 47.4479V46.6458C48.9207 45.0708 49.9999 42.825 49.9999 40.55C49.9999 36.1167 46.3978 32.5 41.9791 32.5Z" fill="#EACC97"/>
<path d="M43.4374 47.0833V50H40.5208V47.0833C40.5208 46.2812 41.177 45.625 41.9791 45.625C42.7812 45.625 43.4374 46.2812 43.4374 47.0833Z" fill="white"/>
<path d="M40.5208 38.6979C40.5208 39.7042 39.7042 40.5208 38.6979 40.5208C37.6917 40.5208 36.875 39.7042 36.875 38.6979C36.875 37.6917 37.6917 36.875 38.6979 36.875C39.7042 36.875 40.5208 37.6917 40.5208 38.6979Z" fill="white"/>
<path d="M45.2604 40.5208C46.2672 40.5208 47.0833 39.7047 47.0833 38.6979C47.0833 37.6911 46.2672 36.875 45.2604 36.875C44.2536 36.875 43.4375 37.6911 43.4375 38.6979C43.4375 39.7047 44.2536 40.5208 45.2604 40.5208Z" fill="white"/>
<path d="M38.6978 40.5208C37.6916 40.5208 36.8749 39.7042 36.8749 38.6979C36.8749 37.6917 37.6916 36.875 38.6978 36.875C39.7041 36.875 40.5207 37.6917 40.5207 38.6979C40.5207 39.7042 39.7041 40.5208 38.6978 40.5208ZM41.9791 32.5C37.5603 32.5 33.9583 36.1167 33.9583 40.55C33.9583 42.825 35.0374 45.0708 36.8749 46.6458V47.4479C36.8749 48.8479 38.027 50 39.427 50H41.9791H40.5207V47.0833C40.5207 46.2812 41.177 45.625 41.9791 45.625V32.5Z" fill="#A36C22"/>
<path d="M41.9791 45.625C41.177 45.625 40.5208 46.2812 40.5208 47.0833V50H41.9791V45.625Z" fill="#DEDEDE"/>
<path d="M38.6979 36.875C37.6917 36.875 36.875 37.6917 36.875 38.6979C36.875 39.7042 37.6917 40.5208 38.6979 40.5208C39.7042 40.5208 40.5208 39.7042 40.5208 38.6979C40.5208 37.6917 39.7042 36.875 38.6979 36.875Z" fill="#DEDEDE"/>
</g>
<defs>
<linearGradient id="paint0_linear_13_185" x1="6.09375" y1="16.6562" x2="68.6563" y2="90.5937" gradientUnits="userSpaceOnUse">
<stop stop-color="white"/>
<stop offset="1" stop-color="white" stop-opacity="0"/>
</linearGradient>
<linearGradient id="paint1_linear_13_185" x1="16.4531" y1="59.3125" x2="65" y2="5.28125" gradientUnits="userSpaceOnUse">
<stop stop-color="#EACC97"/>
<stop offset="1" stop-color="white" stop-opacity="0"/>
</linearGradient>
<clipPath id="clip0_13_185">
<rect width="35" height="35" fill="white" transform="translate(15 15)"/>
</clipPath>
</defs>
</svg>
