<svg width="65" height="65" viewBox="0 0 65 65" fill="none" xmlns="http://www.w3.org/2000/svg">
<rect width="65" height="65" rx="5" fill="url(#paint0_linear_13_215)" fill-opacity="0.8"/>
<rect width="65" height="65" rx="5" fill="url(#paint1_linear_13_215)" fill-opacity="0.2"/>
<g clip-path="url(#clip0_13_215)">
<path d="M48.9744 31.4999C48.9744 40.5986 41.5986 47.9744 32.4999 47.9744C23.4012 47.9744 16.0254 40.5986 16.0254 31.4999C16.0254 22.4015 23.4012 15.0254 32.4999 15.0254C41.5986 15.0254 48.9744 22.4015 48.9744 31.4999Z" fill="#FEF4F5"/>
<path d="M32.5 15.0254V47.9744C41.5987 47.9744 48.9745 40.5986 48.9745 31.4999C48.9745 22.4012 41.5987 15.0254 32.5 15.0254Z" fill="#93B0D0"/>
<path d="M49.9953 32.4993L49.98 32.3359C49.9929 32.0585 49.9998 31.78 49.9998 31.5004C49.9998 26.8261 48.1795 22.4313 44.8742 19.1261C41.569 15.8208 37.1742 14.0005 32.4999 14.0005C27.8256 14.0005 23.4309 15.8208 20.1256 19.1261C16.8203 22.4313 15 26.8261 15 31.5004C15 31.6214 15.0019 31.7418 15.0043 31.8622C15 32.1073 14.9987 32.3562 15.0019 32.6104C15.0021 32.6331 15.0032 32.6561 15.0048 32.6788C15.1439 34.4452 15.4427 35.9683 15.9183 37.3352C15.9215 37.3451 15.9252 37.3547 15.9287 37.3643C16.5231 38.92 17.255 40.3011 18.1039 41.4691C18.1098 41.4773 18.1159 41.4853 18.1221 41.4934C18.1413 41.5182 18.1608 41.5428 18.1803 41.5676C18.7557 42.3828 19.4054 43.1545 20.1256 43.8747C23.4309 47.18 27.8256 49.0003 32.4999 49.0003C37.1742 49.0003 41.569 47.18 44.8742 43.8747C47.8393 40.9099 49.6081 37.0682 49.9413 32.9343C49.9889 32.7989 50.0097 32.6515 49.9953 32.4993ZM38.5911 45.6972C38.9732 45.4667 39.3446 45.2205 39.7024 44.9583C39.7051 44.9567 39.7075 44.9548 39.7102 44.9527C41.268 43.7903 42.6272 42.2712 43.6406 40.5601C44.5741 39.0276 44.9992 37.5325 45.2651 36.4009C45.2683 36.3865 45.2716 36.372 45.2742 36.3576C45.3228 36.1018 45.376 35.8492 45.4323 35.6065C45.4368 35.5875 45.4406 35.5683 45.4441 35.5491C45.4785 35.3499 45.4913 35.1709 45.5025 35.0129C45.5084 34.9301 45.514 34.8519 45.5215 34.7904C45.522 34.7862 45.5226 34.7819 45.5231 34.7776L45.5912 34.1728C45.615 33.9749 45.6075 33.8024 45.6021 33.6761C45.6003 33.6355 45.5984 33.5899 45.5989 33.5696C45.5995 33.5552 45.5995 33.5407 45.5995 33.5266C45.592 32.9578 45.6056 32.651 45.6056 32.6481C45.6064 32.6331 45.6053 32.6187 45.6053 32.6037C45.6056 32.5837 45.6061 32.5634 45.6051 32.5431V32.5429C45.6035 32.5098 45.6003 32.4764 45.5952 32.443C45.5947 32.4401 45.5487 32.1311 45.4964 31.5688C45.4951 31.5549 45.4935 31.5407 45.4916 31.5268C45.4889 31.5079 45.4862 31.4633 45.4838 31.4243C45.4764 31.2991 45.4659 31.1284 45.4211 30.9332L45.2908 30.346C45.2897 30.3415 45.2886 30.3367 45.2876 30.3321C45.2737 30.2734 45.2603 30.1984 45.2462 30.1188C45.2192 29.9661 45.1882 29.793 45.1335 29.601C45.1282 29.5823 45.1223 29.5639 45.1159 29.5455C45.0336 29.3097 44.9559 29.0704 44.8846 28.8349C44.8804 28.8202 44.8756 28.8061 44.8705 28.7917C44.499 27.7329 43.9394 26.3449 42.902 24.9921C41.7911 23.5021 40.3922 22.234 38.8557 21.3248C38.853 21.3232 38.8503 21.3216 38.8474 21.32C37.0527 20.2804 34.9926 19.6532 32.8882 19.5053C32.6609 19.4788 32.451 19.4882 32.2809 19.4959C32.1931 19.4999 32.11 19.5037 32.0462 19.5013C32.0363 19.501 32.0265 19.5007 32.0166 19.5005L31.6486 19.498C31.4254 19.4863 31.2321 19.4975 31.0451 19.533C30.894 19.5565 30.7306 19.5717 30.5583 19.5883C30.2125 19.6209 29.8238 19.6577 29.4216 19.7717C28.2208 19.9736 27.1276 20.4599 26.1951 20.9013C26.1663 20.9146 26.1382 20.9298 26.111 20.9459C25.8942 21.0743 25.6731 21.1966 25.4536 21.3093C25.4464 21.313 25.4394 21.3168 25.4322 21.3205C25.2325 21.4292 25.0675 21.5515 24.9217 21.6594C24.8413 21.7186 24.7655 21.7747 24.7003 21.8158C24.695 21.8193 24.6894 21.8225 24.684 21.8263L24.3414 22.0508C24.3016 22.0773 24.2634 22.1061 24.2274 22.1376L23.916 22.411C23.9104 22.4159 23.9051 22.4209 23.8995 22.426C23.8338 22.4864 23.7537 22.5507 23.6688 22.6188C23.5401 22.7219 23.3945 22.8386 23.2503 22.9798C22.4599 23.7371 21.7366 24.649 21.0394 25.7668C21.0324 25.778 21.0257 25.7892 21.0193 25.8007C20.4807 26.7425 20.0519 27.8165 19.7085 29.0833C19.7045 29.0969 19.7013 29.1102 19.6983 29.1241C19.4695 30.1287 19.3731 31.2379 19.3947 32.6147C19.3953 32.6465 19.3974 32.6785 19.4009 32.71C19.5483 34.0566 19.7798 35.1274 20.1293 36.0794C20.1344 36.093 20.1395 36.1066 20.1451 36.12C20.6268 37.2775 21.1593 38.2362 21.7726 39.0506C21.7812 39.0618 21.79 39.073 21.799 39.0842C22.5753 40.0298 23.3387 40.7759 24.1326 41.3649C24.2819 41.4784 24.4274 41.5663 24.5558 41.644C24.637 41.6928 24.7134 41.739 24.7708 41.7801C24.7764 41.7844 24.7823 41.7882 24.7879 41.7922L25.088 41.9983C25.1321 42.0282 25.1783 42.0549 25.2263 42.0779L25.5545 42.2346C25.5609 42.2376 25.5671 42.2405 25.5735 42.2434C25.6266 42.2675 25.6952 42.3067 25.7679 42.3478C25.9022 42.4242 26.0694 42.5193 26.2683 42.5946C26.2768 42.598 26.2856 42.6013 26.2945 42.6042C26.4921 42.6733 26.687 42.7503 26.8734 42.8328C26.9078 42.8477 26.9428 42.8611 26.9786 42.8723C27.9207 43.1708 28.8488 43.4411 29.8358 43.475C30.0382 43.507 30.232 43.5164 30.4155 43.5164C30.5466 43.5164 30.6726 43.5115 30.7923 43.507C30.9346 43.5017 31.0694 43.4966 31.1851 43.5011C31.4134 43.5198 31.6118 43.4913 31.7514 43.4637L32.0422 43.4226C32.0529 43.421 32.0636 43.4194 32.0743 43.4176C32.1084 43.4117 32.1707 43.4074 32.231 43.4034C32.3707 43.3938 32.5586 43.3812 32.7635 43.3278C34.4383 42.9818 35.9555 42.2982 37.2741 41.2963C37.2781 41.2934 37.2818 41.2901 37.2858 41.2872C38.3579 40.4474 39.2888 39.3563 39.9785 38.1315C40.6039 37.0658 40.8517 36.0655 41.0352 35.211C41.0397 35.1899 41.0437 35.1685 41.0469 35.1472C41.0696 34.9947 41.0982 34.8468 41.1321 34.7071C41.1385 34.6802 41.1441 34.6529 41.1484 34.6254C41.1743 34.4607 41.1772 34.3127 41.1794 34.2046C41.1799 34.1669 41.181 34.1157 41.1828 34.0978C41.1844 34.0841 41.1858 34.0703 41.1866 34.0564C41.1943 33.9421 41.2058 33.8323 41.2213 33.7202C41.2215 33.7173 41.2221 33.7143 41.2224 33.7116C41.2475 33.517 41.2306 33.3517 41.2205 33.2532C41.2194 33.2419 41.2181 33.2313 41.2173 33.2206C41.217 33.2075 41.2165 33.1941 41.2159 33.1811C41.2023 32.9127 41.2077 32.7479 41.2101 32.6956C41.2202 32.5877 41.2141 32.4764 41.1874 32.3648C41.1871 32.3629 41.1473 32.1856 41.1134 31.8633C41.1118 31.8499 41.1102 31.8363 41.1083 31.823C41.1075 31.8141 41.1073 31.8051 41.1067 31.7957C41.1019 31.6975 41.0936 31.5327 41.037 31.3418C41.0362 31.3388 41.0354 31.3362 41.0344 31.3332C41.0018 31.2262 40.9727 31.118 40.9478 31.0115C40.9446 30.9973 40.9412 30.9837 40.9372 30.9698C40.9329 30.9541 40.9246 30.9073 40.9187 30.8731C40.9003 30.7706 40.8755 30.6296 40.8247 30.4737C40.8157 30.4459 40.8053 30.4184 40.794 30.3917C40.7372 30.2571 40.6891 30.1268 40.6466 29.9928C40.6397 29.9706 40.632 29.9487 40.6237 29.9273C40.3203 29.1532 39.9358 28.2539 39.2076 27.3743C38.4124 26.3756 37.437 25.5409 36.3862 24.9601C36.3814 24.9574 36.3763 24.9548 36.3715 24.9521C35.1477 24.3013 33.8059 23.9371 32.3824 23.8693C32.1864 23.8487 32.0155 23.8674 31.8986 23.8802C31.8705 23.8832 31.8326 23.8874 31.8163 23.8882C31.7958 23.8877 31.7752 23.888 31.7546 23.8888C31.7015 23.8906 31.6462 23.8914 31.5864 23.8906C31.3867 23.8776 31.204 23.8947 31.0305 23.9424C30.9581 23.9579 30.8622 23.9689 30.7613 23.9801C30.5493 24.0039 30.2916 24.0327 30.016 24.1264C29.299 24.2637 28.671 24.5737 28.114 24.8487L27.9647 24.9222C27.9188 24.9446 27.875 24.9705 27.8328 24.9996C27.7297 25.0709 27.6269 25.1321 27.519 25.1865C27.5076 25.1921 27.4961 25.1983 27.4849 25.2044C27.3148 25.2981 27.1869 25.4066 27.0931 25.4856C27.067 25.5078 27.0312 25.5382 27.0224 25.5446C27.0063 25.5548 26.9903 25.5654 26.9748 25.5767C26.926 25.6114 26.875 25.645 26.8234 25.6765C26.7535 25.7192 26.6889 25.77 26.6312 25.8279L26.4464 26.013C26.4408 26.0189 26.4349 26.0247 26.4293 26.0306C26.4152 26.0456 26.369 26.0832 26.3353 26.1107C26.2525 26.1783 26.1497 26.2624 26.044 26.3748C25.449 26.9924 25.0071 27.6822 24.688 28.2146C24.6771 28.233 24.6667 28.2517 24.6568 28.2707C24.2779 29.0034 24.0658 29.7452 23.9083 30.3743C23.9027 30.3968 23.8976 30.4197 23.8936 30.4424C23.763 31.1714 23.7686 31.8619 23.7881 32.6246C23.7895 32.6764 23.7948 32.7282 23.8039 32.7795C23.9243 33.4492 24.0653 34.1602 24.3489 34.846C24.3585 34.8689 24.3689 34.8916 24.3801 34.9138C24.6512 35.4537 24.9908 36.0823 25.4568 36.6505C25.472 36.6692 25.488 36.6874 25.5046 36.705C25.9097 37.1336 26.4026 37.6249 26.9895 38.0233C27.1108 38.1082 27.224 38.1643 27.3076 38.2057C27.3268 38.2153 27.3463 38.2241 27.3647 38.2343C27.3679 38.2367 27.3711 38.2388 27.3743 38.2412L27.5487 38.3585C27.6291 38.4127 27.7169 38.4554 27.8096 38.485C27.8504 38.4978 27.8889 38.512 27.9244 38.5269C27.9364 38.532 27.9487 38.5368 27.961 38.5414C27.9722 38.5472 27.9831 38.5536 27.9941 38.5598C28.0867 38.6116 28.2269 38.6898 28.4152 38.7422C28.4304 38.7464 28.4459 38.7505 28.4614 38.7539C28.5337 38.7705 28.5976 38.7913 28.656 38.8169C28.7169 38.8439 28.7802 38.865 28.8451 38.8794C28.9295 38.8984 29.0125 38.9184 29.095 38.9382C29.5164 39.0386 29.9904 39.1518 30.517 39.1347C30.5955 39.144 30.6702 39.1478 30.7413 39.1478C30.8833 39.1478 31.0096 39.1331 31.1148 39.1208C31.1557 39.1163 31.2094 39.1099 31.2382 39.1083C31.4208 39.1264 31.6043 39.1051 31.7955 39.0434C31.8179 39.0378 31.8406 39.033 31.8641 39.0287C31.874 39.0271 31.8836 39.025 31.8932 39.0231C31.8959 39.0228 31.8986 39.0228 31.9012 39.0226C31.9968 39.0167 32.1645 39.0068 32.3565 38.9387C33.3133 38.6631 34.1354 38.2297 34.869 37.6145C34.8767 37.6078 34.8847 37.6012 34.8922 37.5945C35.4762 37.0741 35.9737 36.41 36.3323 35.6722C36.6519 35.0617 36.7374 34.4842 36.794 34.1004C36.7998 34.0601 36.8057 34.0209 36.8116 33.9829C36.8148 33.9618 36.8175 33.9408 36.8193 33.9194C36.8738 33.3285 36.8367 32.8847 36.8185 32.6684C36.8252 32.5669 36.8169 32.4676 36.7953 32.3728L36.7958 32.3749C36.7958 32.3749 36.7953 32.372 36.7945 32.3677C36.7942 32.3672 36.7942 32.3666 36.7942 32.3661C36.7908 32.3477 36.7822 32.2993 36.7745 32.2243C36.7742 32.2219 36.7739 32.2198 36.7737 32.2176C36.7705 32.1551 36.7625 32.0368 36.7192 31.8911C36.7083 31.855 36.6992 31.8214 36.6914 31.788C36.6904 31.7829 36.689 31.7776 36.6877 31.7722L36.6856 31.7605C36.6759 31.7065 36.6599 31.6165 36.6257 31.5111C36.6167 31.483 36.6062 31.4553 36.5948 31.428C36.5779 31.3885 36.5638 31.3498 36.5512 31.31C36.544 31.2876 36.5363 31.2657 36.5277 31.2438C36.4223 30.9746 36.2263 30.4753 35.8319 29.9973C35.4447 29.5124 34.9686 29.106 34.4543 28.8218C34.4495 28.8192 34.4444 28.8165 34.4399 28.8141C33.8441 28.4971 33.1926 28.319 32.5023 28.2838C32.3643 28.271 32.2518 28.2835 32.1877 28.2905H32.1875C32.1813 28.2907 32.1755 28.2907 32.1691 28.291C32.1586 28.2915 32.148 28.2915 32.1375 28.2915C32.003 28.2846 31.8764 28.2963 31.7533 28.3273C31.7359 28.3297 31.7183 28.3313 31.701 28.3332C31.6011 28.3444 31.4601 28.3604 31.2985 28.4104C30.9314 28.4867 30.6248 28.6381 30.3749 28.7615L30.3121 28.7922C30.2662 28.8149 30.2219 28.8408 30.1797 28.8699C30.1583 28.8849 30.137 28.8977 30.114 28.9092C30.1031 28.9148 30.0921 28.9206 30.0812 28.9265C29.9583 28.9946 29.8716 29.068 29.8195 29.1118L29.8165 29.1145C29.8131 29.1166 29.8099 29.119 29.8067 29.1212C29.7973 29.1281 29.7874 29.1343 29.7778 29.1401C29.7079 29.1829 29.6432 29.2336 29.5853 29.2915L29.5108 29.3663L29.5023 29.3733C29.4619 29.4064 29.3952 29.4608 29.3244 29.5359C29.0312 29.8408 28.8189 30.1709 28.6667 30.4248C28.6558 30.4432 28.6451 30.4622 28.6352 30.4811C28.4446 30.8504 28.3385 31.2235 28.2675 31.5071C28.2619 31.5298 28.2571 31.5525 28.2528 31.5752C28.1877 31.9383 28.1901 32.2793 28.1986 32.6259C28.2002 32.6782 28.2053 32.7303 28.2146 32.7819C28.2691 33.0857 28.3396 33.4387 28.4827 33.7851C28.4924 33.8083 28.5028 33.831 28.514 33.8534C28.6438 34.1122 28.8085 34.4158 29.0443 34.7039C29.0598 34.7229 29.0758 34.7413 29.0926 34.7589C29.2873 34.9648 29.5258 35.2019 29.8222 35.4035C29.9009 35.458 29.9728 35.4949 30.0171 35.517L30.0654 35.5496C30.1445 35.6027 30.2299 35.6444 30.3204 35.6738C30.3786 35.7055 30.478 35.7563 30.6072 35.7923C30.619 35.7955 30.6312 35.7987 30.6433 35.8014C30.6996 35.8254 30.7578 35.8441 30.8176 35.8577C30.851 35.8652 30.8839 35.873 30.9167 35.881C31.1084 35.9266 31.3399 35.9819 31.6139 35.9819C31.6614 35.9819 31.7103 35.9803 31.7602 35.9766C32.325 35.9354 32.752 35.4441 32.7106 34.8791C32.6692 34.3143 32.1805 33.8903 31.6155 33.9311C31.5797 33.9309 31.4716 33.905 31.3928 33.8863C31.3787 33.8828 31.3642 33.8793 31.3501 33.8761C31.3135 33.8625 31.2761 33.8502 31.2382 33.8387C31.2032 33.8206 31.1592 33.7995 31.1071 33.7792C31.0454 33.7391 30.9904 33.7108 30.9535 33.6924C30.8366 33.6088 30.717 33.4908 30.6112 33.3803C30.5191 33.2612 30.4366 33.1106 30.3661 32.9717C30.3191 32.8483 30.2841 32.6943 30.247 32.4956C30.2427 32.2905 30.2433 32.1167 30.2662 31.9674C30.3095 31.7989 30.3642 31.6112 30.4441 31.4486C30.5367 31.2958 30.6569 31.1108 30.7949 30.9655L30.8005 30.961C30.8371 30.9308 30.8969 30.8822 30.961 30.8165C30.9669 30.8123 30.973 30.8083 30.9792 30.804C31.0398 30.7634 31.0884 30.7241 31.1231 30.695C31.1752 30.6665 31.2264 30.6358 31.2764 30.6034L31.2823 30.6005C31.4558 30.5148 31.62 30.4342 31.7311 30.4155C31.7851 30.4064 31.8382 30.393 31.8903 30.3757C31.9031 30.3741 31.9162 30.3727 31.929 30.3714C31.9845 30.365 32.055 30.3572 32.1354 30.3423C32.1645 30.342 32.192 30.342 32.2195 30.3412C32.2884 30.3412 32.3469 30.3359 32.3891 30.3313C32.7773 30.35 33.1405 30.4472 33.4692 30.6208C33.8228 30.8179 34.0796 31.0886 34.2329 31.2817C34.2374 31.2876 34.2423 31.2932 34.2471 31.2988C34.414 31.4999 34.5138 31.7279 34.6073 31.964C34.6262 32.0222 34.6471 32.0801 34.6695 32.1378C34.6759 32.1722 34.6847 32.2176 34.6978 32.2694C34.708 32.3116 34.7186 32.3533 34.7298 32.3944C34.7317 32.4139 34.7339 32.4358 34.7371 32.4596C34.7459 32.5405 34.7557 32.6094 34.7648 32.666C34.7656 32.7322 34.7704 32.7909 34.7744 32.8374C34.7894 33.0126 34.814 33.3026 34.7798 33.7023C34.7747 33.7343 34.7699 33.7672 34.7651 33.8008C34.7197 34.1071 34.673 34.4241 34.5112 34.729C34.505 34.7405 34.4989 34.7522 34.4933 34.7643C34.3253 35.1127 34.0236 35.618 33.5389 36.0532C33.0251 36.4815 32.4425 36.7835 31.7589 36.9769C31.6887 36.9811 31.5851 36.9891 31.4652 37.0172C31.404 37.0287 31.3431 37.0423 31.2831 37.0575C31.1282 37.0548 30.9917 37.0706 30.8782 37.0839C30.8382 37.0885 30.7859 37.0946 30.7562 37.0965C30.6713 37.0807 30.5845 37.0765 30.4983 37.0826C30.235 37.1016 29.9271 37.0284 29.5706 36.9435C29.5095 36.9288 29.4475 36.9141 29.3853 36.8994C29.263 36.8505 29.1375 36.81 29.0053 36.7761C29.0016 36.7739 28.9978 36.7715 28.9938 36.7694C28.9236 36.7301 28.8205 36.6727 28.6886 36.6241C28.6542 36.61 28.6189 36.5963 28.5831 36.583L28.5292 36.5467C28.4106 36.4639 28.2996 36.4086 28.2173 36.368C28.197 36.3579 28.1701 36.3445 28.1567 36.3373C28.1532 36.3352 28.15 36.3328 28.1468 36.3306C27.7316 36.05 27.3457 35.6668 27.0208 35.324C26.7022 34.9285 26.4525 34.47 26.2304 34.0294C26.0421 33.5618 25.9313 33.0179 25.836 32.4937C25.8213 31.89 25.8194 31.3447 25.9062 30.8374C26.0317 30.3394 26.1965 29.766 26.464 29.2403C26.7262 28.8039 27.0814 28.2525 27.5252 27.7933C27.5297 27.7884 27.5343 27.7836 27.5388 27.7786C27.5527 27.7641 27.5986 27.7268 27.632 27.6993C27.7097 27.636 27.8056 27.5575 27.9052 27.4541L28.0013 27.358C28.0496 27.3265 28.0977 27.2942 28.1447 27.2611C28.2576 27.1868 28.3492 27.1091 28.4176 27.0514C28.439 27.0333 28.467 27.0095 28.4838 26.9964C28.6366 26.9174 28.7872 26.8285 28.9327 26.7313L29.0211 26.6878C29.5209 26.4413 29.9928 26.2082 30.4529 26.1315C30.5266 26.1193 30.5984 26.099 30.6676 26.0712C30.7263 26.0477 30.8657 26.0319 30.9885 26.0183C31.1394 26.0015 31.3092 25.9825 31.4953 25.9401C31.5039 25.9403 31.5122 25.9406 31.5207 25.9409C31.6198 25.9428 31.7124 25.9422 31.803 25.9393C31.9282 25.9406 32.039 25.9281 32.1215 25.919C32.1437 25.9166 32.1723 25.9134 32.191 25.9118C32.2115 25.9139 32.2318 25.9155 32.2524 25.9163C33.38 25.966 34.4393 26.2493 35.4009 26.7591C36.4319 27.331 37.1702 28.1075 37.6084 28.659C37.6129 28.6648 37.6175 28.6704 37.6223 28.6763C38.1518 29.3137 38.4471 29.9976 38.7016 30.6451C38.7537 30.8069 38.8135 30.9701 38.8797 31.1308C38.8856 31.1578 38.8928 31.1981 38.8989 31.2323C38.9118 31.3052 38.9278 31.3952 38.9537 31.4932C38.9841 31.6224 39.0188 31.753 39.0573 31.882C39.0576 31.8876 39.0578 31.8932 39.0581 31.8985C39.0608 31.9517 39.0642 32.0216 39.076 32.1031C39.1038 32.3608 39.135 32.5533 39.1582 32.6772C39.1545 32.8029 39.1534 32.9984 39.166 33.262C39.1673 33.3418 39.1745 33.4107 39.1799 33.4628C39.1807 33.4713 39.1817 33.4799 39.1825 33.4884C39.1646 33.6241 39.151 33.7621 39.1411 33.8994C39.1315 33.9987 39.1299 34.09 39.1283 34.1645C39.1275 34.2046 39.1267 34.2518 39.1243 34.2836C39.0848 34.454 39.0506 34.6308 39.0231 34.811C38.8672 35.5344 38.6728 36.3061 38.2052 37.1005C38.2015 37.1064 38.198 37.1125 38.1948 37.1184C37.6372 38.1109 36.888 38.9924 36.0268 39.668C34.9485 40.4861 33.7013 41.0437 32.3205 41.3251C32.294 41.3305 32.2735 41.3355 32.2476 41.343C32.2225 41.3486 32.1472 41.3537 32.0922 41.3574C31.9942 41.3641 31.8729 41.3721 31.7397 41.3943L31.4337 41.4378C31.412 41.4408 31.3904 41.4445 31.3693 41.449C31.3517 41.4525 31.3402 41.4546 31.3333 41.4557C31.3236 41.4549 31.3143 41.4544 31.3047 41.4538C31.0956 41.4434 30.8932 41.4512 30.7146 41.4578C30.4924 41.4661 30.2825 41.4741 30.1295 41.445C30.0734 41.4343 30.0163 41.4282 29.9591 41.4269C29.2286 41.4116 28.4795 41.1959 27.6491 40.9337C27.4347 40.8405 27.2128 40.7534 26.9879 40.6744C26.9367 40.6533 26.8608 40.6103 26.7807 40.5649C26.679 40.507 26.5639 40.4415 26.4296 40.3801L26.1818 40.2618L25.9556 40.1067C25.836 40.0215 25.7187 39.951 25.6151 39.8883C25.5219 39.8319 25.4336 39.7788 25.3719 39.7315C25.3673 39.728 25.3633 39.7248 25.3588 39.7216C24.7043 39.2367 24.0626 38.6079 23.3975 37.7996C22.8976 37.1325 22.4557 36.3317 22.0466 35.3525C21.7638 34.576 21.5721 33.6788 21.4442 32.5343C21.4281 31.3583 21.5072 30.4237 21.6928 29.5994C21.987 28.5198 22.3462 27.6151 22.7897 26.8352C23.3932 25.8699 24.0092 25.0917 24.6725 24.4567C24.676 24.4535 24.6795 24.4503 24.6827 24.4471C24.7548 24.3761 24.8504 24.2995 24.9513 24.2183C25.0512 24.1384 25.1636 24.0482 25.2765 23.9454L25.5262 23.7262L25.8013 23.5456C25.9278 23.4653 26.0408 23.3817 26.1409 23.308C26.2384 23.2356 26.3305 23.1675 26.4039 23.1264C26.6413 23.0041 26.8798 22.8725 27.114 22.735C27.9263 22.3515 28.8667 21.9357 29.8101 21.7862C29.8574 21.7787 29.9041 21.7678 29.9501 21.7539C30.1778 21.6839 30.4563 21.6578 30.7509 21.6297C30.9538 21.6105 31.1634 21.5907 31.384 21.5555C31.3976 21.5534 31.4112 21.551 31.4246 21.5483C31.4379 21.5456 31.4729 21.5419 31.5546 21.5467C31.5728 21.5477 31.5907 21.5483 31.6088 21.5485L31.9885 21.5512C32.1287 21.5555 32.258 21.5496 32.3725 21.5445C32.4809 21.5397 32.5928 21.5344 32.6534 21.5427C32.6753 21.5456 32.6975 21.5477 32.7197 21.5494C34.521 21.6719 36.2826 22.2054 37.8145 23.092C39.1198 23.865 40.3115 24.9475 41.2611 26.2229C41.2643 26.2271 41.2672 26.2309 41.2704 26.2351C42.1225 27.3444 42.5869 28.4814 42.9279 29.4499C43.0021 29.6953 43.0827 29.9434 43.1679 30.1885C43.1906 30.2742 43.2082 30.3733 43.2267 30.4777C43.2448 30.5794 43.2635 30.6844 43.2897 30.7962L43.4195 31.381C43.4203 31.3848 43.4211 31.3885 43.4221 31.3922C43.4288 31.4216 43.4331 31.4892 43.4365 31.5487C43.4408 31.6168 43.4454 31.6932 43.4558 31.7776C43.4966 32.2107 43.5337 32.5071 43.5532 32.6507C43.549 32.7939 43.5428 33.0927 43.5482 33.5343C43.5466 33.6187 43.55 33.6954 43.553 33.764C43.5556 33.8259 43.5586 33.8964 43.5546 33.9279C43.5543 33.9317 43.5538 33.9354 43.5532 33.9392L43.4854 34.5424C43.4715 34.6561 43.4638 34.7637 43.4566 34.8676C43.4486 34.9782 43.4411 35.0831 43.4269 35.175C43.3687 35.4276 43.3137 35.6887 43.2632 35.9528C43.0178 36.9942 42.6608 38.2273 41.8859 39.4979C41.8835 39.5016 41.8811 39.5056 41.8787 39.5096C41.0029 40.9905 39.8301 42.3032 38.4875 43.3062C36.8508 44.503 34.8983 45.3257 32.8406 45.6854C32.8222 45.6886 32.8035 45.6924 32.7851 45.6966C32.6874 45.7193 32.5493 45.7289 32.4027 45.7391C32.2783 45.7479 32.1375 45.7578 31.9893 45.7775L31.5434 45.8256C31.529 45.8272 31.5143 45.8291 31.4996 45.8312C31.3987 45.8467 31.3231 45.8523 31.27 45.848C31.2564 45.847 31.243 45.8462 31.2294 45.8456C30.9981 45.8366 30.7722 45.8384 30.5535 45.8403C30.168 45.8435 29.8043 45.8464 29.4796 45.7896C29.4411 45.7826 29.4019 45.7781 29.3623 45.7757C28.1434 45.7038 26.9222 45.3231 25.884 44.9562C25.5855 44.8245 25.2771 44.6947 24.9663 44.57C24.8392 44.5153 24.6971 44.4341 24.5468 44.3481C24.4191 44.275 24.2872 44.1994 24.1411 44.126L23.7462 43.9182L23.3777 43.664C23.2447 43.569 23.1142 43.4838 22.9879 43.4013C22.8311 43.2993 22.6834 43.2031 22.5582 43.1046C22.5553 43.1025 22.5523 43.1003 22.5497 43.0979C21.6506 42.4069 20.7774 41.5342 19.9507 40.5013C18.1931 38.0575 17.1301 35.0826 17.055 31.867C17.0807 30.561 17.2217 29.4013 17.4842 28.3412C17.8972 26.8693 18.4487 25.5484 19.124 24.4143C19.948 23.1184 20.8604 22.0044 21.8356 21.1037C21.838 21.1013 21.8407 21.0991 21.8431 21.0967C21.975 20.9723 22.1288 20.8503 22.292 20.721C22.4159 20.6225 22.5441 20.5208 22.6738 20.4094L23.0592 20.0906L23.4752 19.819C23.6183 19.7288 23.75 19.6372 23.8773 19.5485C24.045 19.4321 24.2034 19.3221 24.3473 19.2441C24.6691 19.0724 24.9898 18.901 25.3089 18.7303C26.8563 18.012 28.0486 17.6139 29.1714 17.4395C29.2059 17.4342 29.24 17.4272 29.2739 17.4182C29.6737 17.3135 30.1111 17.2764 30.5744 17.2371C30.8035 17.2176 31.0406 17.1973 31.2812 17.1682C31.2913 17.1672 31.3018 17.1656 31.3119 17.164C31.3973 17.1511 31.5026 17.1479 31.6435 17.1549C31.6548 17.1554 31.6662 17.1557 31.6775 17.156L32.1976 17.1632C32.3552 17.169 32.5031 17.1669 32.6462 17.165C32.8326 17.1624 33.0091 17.1597 33.1498 17.1781C33.1667 17.1802 33.1832 17.1819 33.2 17.1832C35.696 17.3811 38.1326 18.1594 40.2413 19.4313C42.0344 20.5274 43.6536 22.038 44.9242 23.7993C44.9263 23.8025 44.9287 23.8057 44.9311 23.8089C46.1431 25.4498 46.7832 27.1393 47.1597 28.2718L47.1976 28.3965C47.2887 28.6966 47.3757 28.9829 47.4585 29.2547C47.498 29.4072 47.5266 29.5668 47.5565 29.7356C47.5776 29.8539 47.5992 29.9759 47.6257 30.0996L47.6558 30.2504C47.7007 30.4771 47.7429 30.6894 47.7827 30.8873C47.8006 30.9768 47.8078 31.0844 47.8153 31.1981C47.8211 31.283 47.827 31.3709 47.8377 31.4643L47.9234 32.3749C47.5883 38.3558 43.8355 43.4381 38.5911 45.6972Z" fill="#EACC97"/>
<path d="M49.9806 32.3354C49.9935 32.058 50.0004 31.7795 50.0004 31.4999C50.0004 26.8256 48.1801 22.4309 44.8748 19.1256C41.5695 15.8203 37.1748 14 32.5005 14V17.1661C32.5496 17.1656 32.599 17.1653 32.6471 17.1645C32.8337 17.1619 33.0102 17.1595 33.151 17.1776C33.1675 17.1798 33.1843 17.1816 33.2012 17.183C35.6971 17.3808 38.1337 18.1592 40.2424 19.4308C42.0355 20.5272 43.6548 22.0378 44.9253 23.7988C44.9274 23.802 44.9298 23.8052 44.9319 23.8084C46.1443 25.4493 46.7843 27.1391 47.1608 28.2713L47.1985 28.396C47.2898 28.6964 47.3768 28.9824 47.4596 29.2545C47.4991 29.4067 47.5275 29.5666 47.5576 29.7351C47.5787 29.8534 47.6004 29.9754 47.6268 30.0991L47.657 30.2502C47.7018 30.4769 47.744 30.6892 47.7838 30.8871C47.8017 30.9765 47.8089 31.0839 47.8164 31.1976C47.8223 31.2828 47.8281 31.3704 47.8388 31.4639L47.9245 32.3744C47.5891 38.3553 43.8363 43.4376 38.5916 45.6967C38.974 45.4662 39.3452 45.22 39.7033 44.9578C39.7057 44.9559 39.7084 44.9541 39.7108 44.9522C41.2689 43.7896 42.628 42.2707 43.6414 40.5596C44.5747 39.0271 44.9998 37.532 45.2657 36.4004C45.2692 36.386 45.2721 36.3715 45.2751 36.3569C45.3234 36.101 45.3768 35.8484 45.4332 35.606C45.4374 35.587 45.4414 35.5678 45.4446 35.5486C45.4791 35.3494 45.4919 35.1705 45.5031 35.0124C45.509 34.9296 45.5146 34.8514 45.5223 34.7899C45.5229 34.7857 45.5234 34.7814 45.5237 34.7771L45.5918 34.172C45.6155 33.9742 45.6081 33.8017 45.6027 33.6754C45.6011 33.6351 45.599 33.5891 45.5998 33.5691C45.6 33.5547 45.6003 33.5403 45.6 33.5258C45.5928 32.9573 45.6062 32.6505 45.6065 32.6473C45.607 32.6326 45.6062 32.6179 45.6062 32.6033C45.6062 32.5832 45.607 32.5629 45.6059 32.5426V32.5424C45.6041 32.5093 45.6009 32.4759 45.596 32.4425C45.5955 32.4393 45.5496 32.1306 45.497 31.5683C45.4956 31.5541 45.494 31.5402 45.4924 31.5263C45.4898 31.5074 45.4871 31.4628 45.4847 31.4235C45.4769 31.2986 45.4668 31.1279 45.4219 30.9327L45.2916 30.3455C45.2906 30.341 45.2895 30.3362 45.2884 30.3317C45.2745 30.2729 45.2612 30.1976 45.247 30.118C45.2198 29.9656 45.1891 29.7923 45.1341 29.6005C45.1287 29.5818 45.1229 29.5632 45.1165 29.545C45.0342 29.3089 44.9565 29.07 44.8855 28.8342C44.8809 28.8197 44.8761 28.8053 44.8713 28.7912C44.4996 27.7324 43.9402 26.3441 42.9028 24.9916C41.7917 23.5016 40.3927 22.2335 38.8565 21.3243C38.8536 21.3227 38.8509 21.3211 38.8483 21.3195C37.0533 20.2797 34.9932 19.6524 32.8887 19.5048C32.751 19.4887 32.6209 19.4863 32.5008 19.4885V21.539C32.5627 21.5371 32.618 21.5374 32.6546 21.5422C32.6765 21.5451 32.6986 21.5473 32.7208 21.5489C34.5222 21.6714 36.2837 22.2049 37.8159 23.0915C39.1209 23.8645 40.3126 24.9471 41.2622 26.2224C41.2654 26.2266 41.2683 26.2304 41.2715 26.2347C42.1236 27.3439 42.588 28.4809 42.929 29.4494C43.0032 29.6948 43.0839 29.9429 43.169 30.188C43.1917 30.2737 43.2094 30.3728 43.2278 30.4772C43.2459 30.5789 43.2646 30.6839 43.2908 30.7957L43.4206 31.3805C43.4214 31.3843 43.4222 31.388 43.4232 31.3918C43.4299 31.4211 43.4342 31.4887 43.4377 31.5482C43.4419 31.6163 43.4465 31.6927 43.4569 31.7771C43.4977 32.2102 43.5351 32.5066 43.5544 32.6503C43.5501 32.7934 43.5439 33.0922 43.5493 33.5338C43.5477 33.6182 43.5511 33.6949 43.5541 33.7635C43.5568 33.8254 43.5597 33.8959 43.5557 33.9274C43.5554 33.9312 43.5549 33.9349 43.5544 33.9387L43.4868 34.5419C43.4726 34.6556 43.4649 34.7632 43.4577 34.8671C43.4497 34.9777 43.4422 35.0826 43.428 35.1745C43.3698 35.4271 43.3148 35.6882 43.2646 35.9523C43.019 36.9937 42.6619 38.2269 41.887 39.4974C41.8846 39.5011 41.8822 39.5051 41.8801 39.5091C41.004 40.9901 39.8312 42.3028 38.4886 43.3057C36.852 44.5025 34.8995 45.3252 32.8417 45.6849C32.8233 45.6881 32.8046 45.6919 32.7862 45.6961C32.7104 45.7138 32.61 45.7234 32.5008 45.7317V48.9998C37.1751 48.9998 41.5698 47.1795 44.8751 43.8742C47.8401 40.9094 49.6089 37.0677 49.9419 32.9338C49.9897 32.7985 50.0105 32.6511 49.9961 32.4988L49.9806 32.3354Z" fill="#A36C22"/>
<path d="M37.2738 41.296C37.2778 41.2928 37.2815 41.2899 37.2855 41.287C38.3577 40.4472 39.2885 39.3561 39.9782 38.1312C40.6036 37.0655 40.8517 36.0652 41.0349 35.2108C41.0394 35.1894 41.0434 35.1683 41.0466 35.1469C41.0693 34.9945 41.0979 34.8465 41.1318 34.7069C41.1382 34.6799 41.1438 34.6527 41.1481 34.6252C41.174 34.4601 41.1769 34.3122 41.1791 34.2043C41.1799 34.1667 41.1807 34.1151 41.1825 34.0975C41.1841 34.0836 41.1855 34.07 41.1863 34.0561C41.194 33.9418 41.2055 33.8318 41.221 33.7197C41.2213 33.717 41.2218 33.7141 41.2221 33.7114C41.2474 33.5167 41.2303 33.3514 41.2202 33.2526C41.2191 33.2417 41.2178 33.231 41.217 33.2203C41.2167 33.207 41.2164 33.1939 41.2156 33.1808C41.2023 32.9124 41.2076 32.7477 41.2098 32.6954C41.2199 32.5875 41.2138 32.4761 41.1873 32.3642C41.1868 32.3626 41.147 32.1853 41.1131 31.863C41.1118 31.8494 41.1099 31.8361 41.108 31.8227C41.1072 31.8136 41.107 31.8048 41.1064 31.7955C41.1016 31.6972 41.0934 31.5325 41.0367 31.3415C41.0359 31.3386 41.0351 31.3357 41.0343 31.333C41.0015 31.2259 40.9724 31.1178 40.9476 31.0109C40.9443 30.9971 40.9409 30.9834 40.9371 30.9696C40.9329 30.9538 40.9243 30.9071 40.9184 30.8729C40.9 30.7701 40.8752 30.6294 40.8245 30.4734C40.8154 30.4456 40.8052 30.4181 40.7937 30.3914C40.7369 30.2569 40.6888 30.1266 40.6466 29.9922C40.6394 29.9703 40.6319 29.9484 40.6234 29.9271C40.32 29.1527 39.9355 28.2536 39.2073 27.374C38.4121 26.3754 37.4367 25.5406 36.3859 24.9598C36.3811 24.9572 36.376 24.9545 36.3712 24.9518C35.1814 24.319 33.8796 23.9582 32.4999 23.876V25.931C33.5354 26.0087 34.5103 26.2864 35.4011 26.7585C36.4321 27.3305 37.1705 28.107 37.6086 28.6584C37.6132 28.6643 37.618 28.6699 37.6225 28.6758C38.152 29.3132 38.4474 29.997 38.7019 30.6446C38.7539 30.8064 38.8137 30.9696 38.88 31.1303C38.8861 31.1573 38.893 31.1976 38.8992 31.2318C38.9123 31.3047 38.928 31.3947 38.9539 31.4927C38.9844 31.6219 39.0191 31.7525 39.0575 31.8815C39.0578 31.8871 39.0581 31.8927 39.0583 31.898C39.061 31.9511 39.0645 32.0211 39.0762 32.1026C39.104 32.3602 39.1352 32.5528 39.1585 32.6767C39.1547 32.8024 39.1539 32.9979 39.1665 33.2615C39.1675 33.3413 39.1748 33.4102 39.1801 33.4623C39.1809 33.4708 39.182 33.4793 39.1828 33.4879C39.1651 33.6235 39.1513 33.7616 39.1416 33.8988C39.1318 33.9982 39.1302 34.0895 39.1286 34.164C39.1278 34.2041 39.127 34.2513 39.1246 34.2831C39.085 34.4535 39.0511 34.6302 39.0234 34.8105C38.8674 35.5339 38.673 36.3056 38.2055 37.1C38.202 37.1058 38.1985 37.112 38.195 37.1179C37.6378 38.1104 36.8882 38.9919 36.0273 39.6674C34.9955 40.4501 33.8096 40.9935 32.4999 41.2859V43.3778C32.5824 43.3668 32.671 43.3513 32.7632 43.3273C34.438 42.9812 35.9552 42.2979 37.2738 41.296Z" fill="#6F2205"/>
<path d="M34.8919 37.5942C35.4759 37.0738 35.9737 36.4097 36.332 35.6719C36.6517 35.0615 36.7371 34.4839 36.7937 34.1002C36.7996 34.0598 36.8055 34.0206 36.8113 33.9827C36.8146 33.9616 36.8172 33.9405 36.8194 33.9191C36.8736 33.3282 36.8367 32.8844 36.8183 32.6681C36.8252 32.5666 36.8167 32.4673 36.7953 32.3725L36.7956 32.3746C36.7956 32.3746 36.7951 32.3717 36.7943 32.3674C36.794 32.3669 36.794 32.3663 36.794 32.3658C36.7905 32.3474 36.7822 32.299 36.7742 32.224C36.774 32.2216 36.7737 32.2195 36.7734 32.2173C36.7702 32.1549 36.7622 32.0366 36.719 31.8908C36.708 31.8547 36.6989 31.8211 36.6912 31.7877C36.6901 31.7826 36.6888 31.7773 36.6874 31.7722L36.6853 31.7602C36.6757 31.7062 36.6597 31.6163 36.6255 31.5108C36.6164 31.4827 36.606 31.455 36.5945 31.4277C36.5777 31.3882 36.5635 31.3495 36.551 31.3097C36.5438 31.2873 36.536 31.2654 36.5275 31.2435C36.422 30.9746 36.226 30.475 35.8316 29.997C35.4447 29.5121 34.9683 29.1057 34.454 28.8215C34.4492 28.8189 34.4444 28.8162 34.4396 28.8138C33.8439 28.4968 33.1923 28.3187 32.5023 28.2835C32.5015 28.2835 32.5007 28.2835 32.4996 28.2832V30.3393C32.8462 30.3698 33.172 30.4638 33.4692 30.6205C33.8228 30.8176 34.0794 31.0883 34.2329 31.2814C34.2375 31.2873 34.242 31.2929 34.2468 31.2985C34.4137 31.4996 34.5138 31.7276 34.607 31.9637C34.6263 32.0219 34.6471 32.0798 34.6695 32.1375C34.6757 32.1719 34.6845 32.2173 34.6978 32.2691C34.708 32.3113 34.7184 32.353 34.7299 32.3941C34.7315 32.4136 34.7339 32.4355 34.7368 32.4593C34.7459 32.5402 34.7555 32.6091 34.7646 32.6657C34.7656 32.7319 34.7704 32.7906 34.7745 32.8371C34.7891 33.0123 34.814 33.3023 34.7795 33.702C34.7747 33.7341 34.7699 33.7669 34.7648 33.8006C34.7197 34.1068 34.6727 34.4238 34.5109 34.7287C34.5048 34.7402 34.4989 34.752 34.4933 34.764C34.325 35.1125 34.0236 35.6177 33.5389 36.0529C33.2214 36.3176 32.8775 36.5336 32.4996 36.7061V38.8952C33.3955 38.6183 34.1723 38.1985 34.8687 37.6143C34.8767 37.6076 34.8845 37.6009 34.8919 37.5942Z" fill="#6F2205"/>
</g>
<defs>
<linearGradient id="paint0_linear_13_215" x1="6.09375" y1="16.6562" x2="68.6563" y2="90.5937" gradientUnits="userSpaceOnUse">
<stop stop-color="white"/>
<stop offset="1" stop-color="white" stop-opacity="0"/>
</linearGradient>
<linearGradient id="paint1_linear_13_215" x1="16.4531" y1="59.3125" x2="65" y2="5.28125" gradientUnits="userSpaceOnUse">
<stop stop-color="#EACC97"/>
<stop offset="1" stop-color="white" stop-opacity="0"/>
</linearGradient>
<clipPath id="clip0_13_215">
<rect width="35" height="35" fill="white" transform="translate(15 14)"/>
</clipPath>
</defs>
</svg>
