<svg width="65" height="65" viewBox="0 0 65 65" fill="none" xmlns="http://www.w3.org/2000/svg">
<rect width="65" height="65" rx="5" fill="url(#paint0_linear_13_95)" fill-opacity="0.8"/>
<rect width="65" height="65" rx="5" fill="url(#paint1_linear_13_95)" fill-opacity="0.2"/>
<path d="M41.7456 49.999C41.1793 49.999 40.7202 49.5399 40.7202 48.9736V45.0088C40.7202 44.4425 41.1793 43.9834 41.7456 43.9834C42.3119 43.9834 42.771 44.4425 42.771 45.0088V48.9736C42.771 49.54 42.3119 49.999 41.7456 49.999Z" fill="#93B0D0"/>
<path d="M41.7456 43.9834V49.999C42.3119 49.999 42.771 49.5399 42.771 48.9736V45.0088C42.771 44.4425 42.3119 43.9834 41.7456 43.9834Z" fill="#6892C1"/>
<path d="M28.0051 25.1173H26.8774L26.8779 21.0288H20.1784L20.1779 25.1173H19.0503C17.6368 25.1173 16.4868 26.2673 16.4868 27.6808V30.8959L19.0707 37.0744L16.4868 43.3576V47.4366C16.4868 48.8502 17.6368 50.0001 19.0503 50.0001H28.0051C29.4186 50.0001 30.5686 48.8502 30.5686 47.4366V43.3227L27.1341 36.2715L30.5686 31.0006V27.6808C30.5686 26.2673 29.4186 25.1173 28.0051 25.1173Z" fill="#A36C22"/>
<path d="M30.5685 27.6808C30.5685 26.2673 29.4186 25.1173 28.005 25.1173H26.8774L26.8778 21.0288H23.5283V50.0001H28.005C29.4186 50.0001 30.5685 48.8502 30.5685 47.4366V43.3227L27.1341 36.2715L30.5685 31.0006V27.6808Z" fill="#6F2205"/>
<path d="M44.8218 24.2285H38.6694V16.0254H44.8218V24.2285Z" fill="#FFF4F4"/>
<path d="M41.7456 16.0254H44.8218V24.2285H41.7456V16.0254Z" fill="#F6EFEA"/>
<path d="M16.4868 30.9277H30.5686V43.3212H16.4868V30.9277Z" fill="#93B0D0"/>
<path d="M43.7964 46.0342H39.6948C39.1285 46.0342 38.6694 45.5751 38.6694 45.0089V40.9072C38.6694 40.3409 39.1285 39.8818 39.6948 39.8818H43.7964C44.3627 39.8818 44.8218 40.3409 44.8218 40.9072V45.0089C44.8218 45.5752 44.3627 46.0342 43.7964 46.0342Z" fill="#FFF4F4"/>
<path d="M43.7964 39.8818H41.7456V46.0342H43.7964C44.3627 46.0342 44.8218 45.5751 44.8218 45.0089V40.9072C44.8218 40.3409 44.3627 39.8818 43.7964 39.8818Z" fill="#F6EFEA"/>
<path d="M45.8472 17.0508H37.644C37.0778 17.0508 36.6187 16.5917 36.6187 16.0254C36.6187 15.4591 37.0778 15 37.644 15H45.8472C46.4135 15 46.8726 15.4591 46.8726 16.0254C46.8726 16.5917 46.4135 17.0508 45.8472 17.0508Z" fill="#93B0D0"/>
<path d="M45.3556 32.3967L46.8726 30.9423V28.8828L45.0996 27.9403L46.8726 26.8349V23.75C46.8726 23.1837 46.4135 22.7246 45.8472 22.7246H37.644C37.0778 22.7246 36.6187 23.1837 36.6187 23.75V32.3967H45.3556Z" fill="#FFF4F4"/>
<path d="M46.8726 23.75C46.8726 23.1837 46.4135 22.7246 45.8472 22.7246H41.7456V32.3967H45.3556L46.8726 30.9423V28.8828L45.0996 27.9403L46.8726 26.8349V23.75Z" fill="#F6EFEA"/>
<path d="M46.8726 26.8262H43.0444C42.4781 26.8262 42.019 27.2853 42.019 27.8516C42.019 28.4179 42.4781 28.877 43.0444 28.877H46.8726V26.8262Z" fill="#EEE1DC"/>
<path d="M36.6187 31.9414V40.9071C36.6187 41.4734 37.0778 41.9325 37.644 41.9325H45.8472C46.4135 41.9325 46.8726 41.4734 46.8726 40.9071V37.0626L45.821 36.0619L46.8726 35.0263V32.9668L45.7512 31.9414H36.6187Z" fill="#FF405C"/>
<path d="M46.8726 32.9668L45.7512 31.9414H41.7456V41.9325H45.8472C46.4135 41.9325 46.8726 41.4734 46.8726 40.9071V37.0626L45.821 36.0619L46.8726 35.0263V32.9668Z" fill="#C1126B"/>
<path d="M46.8726 30.9277H43.0444C42.4781 30.9277 42.019 31.3868 42.019 31.9531C42.019 32.5194 42.4781 32.9785 43.0444 32.9785H46.8449H46.8726V30.9277Z" fill="#EEE1DC"/>
<path d="M46.8726 35.0293H43.0444C42.4781 35.0293 42.019 35.4884 42.019 36.0547C42.019 36.621 42.4781 37.0801 43.0444 37.0801H46.8726V35.0293Z" fill="#EEE1DC"/>
<path d="M47.4878 24.7754H36.0035C35.4373 24.7754 34.9781 24.3163 34.9781 23.75C34.9781 23.1837 35.4373 22.7246 36.0035 22.7246H47.4878C48.0541 22.7246 48.5132 23.1837 48.5132 23.75C48.5132 24.3163 48.0541 24.7754 47.4878 24.7754Z" fill="#93B0D0"/>
<path d="M26.8779 21.1567L26.8785 15.5127C26.8785 15.2295 26.649 15 26.3658 15H20.6917C20.4084 15 20.179 15.2295 20.179 15.5127L20.1783 21.1567H26.8779Z" fill="#FFDE46"/>
<path d="M26.3657 15H23.5283V21.1567H26.8778L26.8784 15.5127C26.8784 15.2295 26.6489 15 26.3657 15Z" fill="#FFCD00"/>
<path d="M23.5283 30.9277H30.5685V43.3212H23.5283V30.9277Z" fill="#6892C1"/>
<path d="M45.8472 15H41.7456V17.0508H45.8472C46.4135 17.0508 46.8726 16.5917 46.8726 16.0254C46.8726 15.4591 46.4135 15 45.8472 15Z" fill="#6892C1"/>
<path d="M47.4878 22.7246H41.7456V24.7754H47.4878C48.0541 24.7754 48.5132 24.3163 48.5132 23.75C48.5132 23.1837 48.0541 22.7246 47.4878 22.7246Z" fill="#6892C1"/>
<defs>
<linearGradient id="paint0_linear_13_95" x1="6.09375" y1="16.6562" x2="68.6563" y2="90.5937" gradientUnits="userSpaceOnUse">
<stop stop-color="white"/>
<stop offset="1" stop-color="white" stop-opacity="0"/>
</linearGradient>
<linearGradient id="paint1_linear_13_95" x1="16.4531" y1="59.3125" x2="65" y2="5.28125" gradientUnits="userSpaceOnUse">
<stop stop-color="#EACC97"/>
<stop offset="1" stop-color="white" stop-opacity="0"/>
</linearGradient>
</defs>
</svg>
