<svg width="57" height="57" viewBox="0 0 57 57" fill="none" xmlns="http://www.w3.org/2000/svg">
<g clip-path="url(#clip0_9_498)">
<path d="M0.510665 7.02309C0.892881 6.44977 0.988436 5.68533 1.46621 5.20756C1.75287 4.82534 2.32619 4.82534 2.61286 5.20756C2.80397 5.58978 2.61286 6.06755 2.5173 6.44977C2.42175 6.73643 2.23064 6.83199 1.94398 6.83199C1.75287 7.11865 1.56176 7.40531 1.2751 7.59642C0.892882 7.97864 0.128448 7.50087 0.510665 7.02309Z" fill="#6F2205"/>
<path d="M6.14831 3.20115C6.62608 2.62783 7.1994 2.0545 7.77273 1.57673C8.34605 1.09896 9.11049 0.525635 9.77937 0.525635C10.1616 0.525635 10.3527 1.00341 10.066 1.19451C9.58826 1.67229 8.82383 1.76784 8.2505 2.15006C7.58162 2.53227 7.10385 3.01005 6.53052 3.58337C6.24386 3.77448 5.9572 3.39226 6.14831 3.20115Z" fill="#6F2205"/>
<path d="M14.7482 0.907766C13.9838 0.716657 13.1238 0.621103 12.2638 0.621103C11.9772 0.621103 11.9772 0.143331 12.2638 0.143331C13.4105 0.143331 15.7038 -0.429994 16.4682 0.716657C16.6593 0.907766 16.3727 1.19443 16.1816 1.19443C15.7038 1.19443 15.226 1.00332 14.7482 0.907766Z" fill="#6F2205"/>
<path d="M18.3794 6.2587C18.5705 4.72983 18.8571 3.39207 18.0927 1.95876C17.9971 1.76765 18.1882 1.6721 18.2838 1.8632C19.3349 3.29652 19.8127 4.92094 18.9527 6.54536C18.7616 6.92758 18.2838 6.54536 18.3794 6.2587Z" fill="#6F2205"/>
<path d="M13.4104 13.1387C13.6971 12.3743 14.2704 11.801 14.7482 11.1321C15.3215 10.3677 15.8948 9.69878 16.5637 9.0299C16.7548 8.83879 17.137 9.12545 16.9459 9.41211C16.3726 9.98544 15.9904 10.6543 15.5126 11.3232C15.0348 11.9921 14.6526 12.8521 14.0793 13.4254C13.7926 13.7121 13.2193 13.5209 13.4104 13.1387Z" fill="#6F2205"/>
<path d="M6.5306 19.5408C7.19948 17.8208 8.8239 16.1964 10.1617 14.9542C10.4483 14.7631 10.735 15.0498 10.5439 15.3364C9.875 16.1009 9.20612 16.9609 8.63279 17.8208C8.15502 18.4897 7.7728 19.2542 7.19948 19.8275C6.81726 20.1141 6.43504 19.8275 6.5306 19.5408Z" fill="#6F2205"/>
<path d="M2.99502 28.0452C2.89947 26.3252 3.56835 24.6053 4.14167 23.0764C4.23723 22.7897 4.61944 22.8853 4.61944 23.172C4.14167 24.7964 3.95056 26.4208 3.85501 28.0452C3.75946 28.523 2.99502 28.523 2.99502 28.0452Z" fill="#6F2205"/>
<path d="M6.14835 34.4473C5.57502 33.9696 5.0017 33.3007 4.52392 32.7273C4.14171 32.2496 4.71503 31.6763 5.1928 32.0585C5.67058 32.5364 6.2439 33.014 6.81723 33.4918C7.39055 33.9697 8.25054 34.4473 8.72831 35.1162C8.91942 35.4029 8.63276 35.7851 8.25054 35.6895C7.48611 35.6895 6.72167 35.0207 6.14835 34.4473Z" fill="#6F2205"/>
<path d="M11.3083 36.2628C10.9261 36.2628 10.9261 35.5941 11.3083 35.5941C12.2638 35.4985 13.1238 35.3074 14.0793 35.1161C14.9393 34.925 15.7993 34.4473 16.7549 34.4473C17.2326 34.4473 17.4237 35.1161 16.946 35.3074C15.3215 36.1674 13.0282 36.3584 11.3083 36.2628Z" fill="#6F2205"/>
<path d="M20.9593 32.1541C21.6282 31.6762 22.2971 31.1986 22.966 30.7206C23.6349 30.3386 24.3037 29.6697 25.0682 29.574C25.4504 29.574 25.5459 29.9562 25.4504 30.2429C25.1637 30.9117 24.3037 31.1984 23.7304 31.4851C22.966 31.9628 22.106 32.3451 21.3416 32.8228C20.8638 33.0141 20.5771 32.4408 20.9593 32.1541Z" fill="#6F2205"/>
<path d="M27.9346 27.3762C28.6991 26.5162 29.4635 25.8473 30.3235 25.274C31.1835 24.7007 32.4257 23.9362 33.4768 24.1273C33.9546 24.2229 34.0501 24.7007 33.6679 24.9873C32.999 25.4651 32.0435 25.5607 31.2791 25.8473C30.1324 26.2295 29.0813 26.8984 28.1258 27.6628C28.0302 27.854 27.7435 27.5673 27.9346 27.3762Z" fill="#6F2205"/>
<path d="M37.2991 21.9298C38.0636 21.0698 38.9235 20.4009 39.9746 19.8276C41.0257 19.2542 42.3637 18.5854 43.5103 18.7765C43.8925 18.872 43.8925 19.4453 43.6059 19.5409C42.7457 20.1142 41.5991 20.1142 40.6435 20.4964C39.5926 20.8787 38.5413 21.5475 37.5858 22.312C37.3947 22.5031 37.0125 22.2164 37.2991 21.9298Z" fill="#6F2205"/>
<path d="M51.9188 21.834C51.5367 21.1652 51.2501 20.5918 50.6767 20.1141C49.9123 19.6363 48.7657 19.4452 47.9057 19.4452C47.6188 19.4452 47.6188 18.9674 47.9057 18.9674C49.7212 18.7763 52.8743 19.1585 52.7789 21.6429C52.6834 22.0251 52.1101 22.2163 51.9188 21.834Z" fill="#6F2205"/>
<path d="M55.2633 31.9629C55.1677 30.912 55.3587 29.8607 55.3587 28.8098C55.2633 27.4718 54.8809 26.2296 54.1165 25.1785C54.0211 24.9874 54.3077 24.8919 54.4031 24.9874C55.932 26.9941 57.2698 29.7653 56.2187 32.2497C55.932 32.7273 55.2633 32.4407 55.2633 31.9629Z" fill="#6F2205"/>
<path d="M48.7655 40.0851C49.1477 39.4162 49.721 38.8428 50.1988 38.0784C50.581 37.4095 50.7721 36.6449 50.8677 35.8807C50.9632 35.4027 51.6321 35.4027 51.6321 35.8807C51.7277 37.6006 51.1543 39.7984 49.5299 40.7539C49.0522 41.1363 48.5742 40.5628 48.7655 40.0851Z" fill="#6F2205"/>
<path d="M43.0321 44.0028C44.2743 42.7606 45.6121 41.423 47.141 40.5628C47.6189 40.2762 47.9054 40.9451 47.5232 41.2317C46.1854 42.2828 45.2299 44.0028 43.6054 44.7674C43.1278 44.8628 42.6501 44.385 43.0321 44.0028Z" fill="#6F2205"/>
<path d="M43.1278 51.1695C42.5545 50.8828 42.1723 50.1184 41.8856 49.5451C41.5989 48.8762 41.5035 48.1118 41.5035 47.3473C41.5035 46.8696 42.1723 46.8696 42.1723 47.3473C42.1723 48.0162 42.3635 48.5895 42.6502 49.1629C42.9368 49.6408 43.4146 50.023 43.7011 50.5006C43.9876 50.8828 43.51 51.3605 43.1278 51.1695Z" fill="#6F2205"/>
<path d="M46.8544 56.9025C44.6567 55.5648 42.1723 54.7048 39.879 53.5581C38.8279 52.9848 39.7834 51.4559 40.8345 51.9337C42.7454 52.7937 44.7522 53.5581 46.5678 54.7048C46.6633 53.8448 46.7589 52.9848 46.8544 52.0293C46.95 51.647 46.95 50.9782 47.3324 50.6915L47.4278 50.5961C47.4278 50.5961 47.4278 50.5005 47.5233 50.5005C47.7144 50.3094 48.0966 50.5005 48.0966 50.6917C48.1922 50.7872 48.1922 50.8829 48.1922 51.0739C48.2876 51.5518 48.1922 52.0294 48.1922 52.6027C48.0966 53.8449 48.0009 54.9916 48.0966 56.2338C48.1922 56.807 47.4278 57.1892 46.8544 56.9025Z" fill="#6F2205"/>
</g>
<defs>
<clipPath id="clip0_9_498">
<rect width="57" height="57" fill="white" transform="matrix(4.37114e-08 1 1 -4.37114e-08 0 0)"/>
</clipPath>
</defs>
</svg>
