<svg width="35" height="35" viewBox="0 0 35 35" fill="none" xmlns="http://www.w3.org/2000/svg">
<g clip-path="url(#clip0_24_861)">
<path d="M12.8052 30.3535C14.8744 31.2895 15.7814 35.0001 15.7814 35.0001L30.9243 34.9584C30.6404 34.3691 30.3179 33.7992 29.9588 33.2525C29.6731 32.6678 29.4336 32.0617 29.2425 31.4397C28.8878 30.2397 28.6423 29.0101 28.5087 27.7659C28.2842 25.8543 28.5724 23.9173 29.3439 22.1539C30.024 20.603 31.2049 19.3744 32.1052 17.9545C32.9978 16.5681 33.4785 14.9567 33.4914 13.3079C33.5252 11.6379 33.3204 9.97168 32.8831 8.35963C32.311 6.40668 31.1173 4.69372 29.4833 3.48075C26.4914 1.13455 23.4391 -0.177351 19.5746 0.0193731C17.6405 0.15402 15.7189 0.429928 13.825 0.84489C11.7624 1.26006 9.57852 2.03127 8.09826 3.5942C7.08849 4.67323 6.30836 5.94607 5.80516 7.33558C5.5693 8.02678 5.37743 8.73221 5.23068 9.44765C4.98362 10.2278 4.68547 10.9908 4.33818 11.7317C4.236 11.9568 4.19142 12.2038 4.20844 12.4504C4.3243 13.2856 5.57706 13.6446 5.58732 14.5058C5.57389 14.696 5.51535 14.8803 5.41654 15.0434C4.68213 16.5948 3.78089 18.0616 2.72878 19.4178C2.48016 19.7226 1.97568 20.323 2.03844 20.7539C2.08309 21.0598 2.44999 21.3139 2.67628 21.4822C3.15904 21.8407 4.14206 22.0857 4.26456 22.7326C4.32797 23.062 4.28814 23.403 4.15051 23.7089C3.8168 24.4132 3.44689 24.7885 3.70939 25.0094C3.97189 25.2302 4.6749 25.7607 4.6749 25.7607C4.6749 25.7607 4.00689 26.6139 4.3768 26.8758C4.83542 27.2017 5.41956 27.352 5.57525 27.962C5.62159 28.4455 5.57322 28.9333 5.43283 29.3983C5.3857 29.8532 5.4452 30.3129 5.60663 30.7409C5.82631 31.5951 6.68041 32.1243 7.54309 31.9406C9.32453 31.5071 11.0811 30.9773 12.8052 30.3535Z" fill="#6F2205"/>
<path d="M25.4486 25.6165C24.7039 25.6164 24.0331 25.1659 23.7511 24.4766C23.587 24.079 22.9999 23.5111 21.9052 22.6898C20.1335 21.3622 19.6827 18.9877 20.6983 16.3373L21.0604 15.4014L31.1518 17.2588L29.1761 19.2381H29.1665C28.2746 20.1451 27.4569 21.1969 27.4569 22.3277C27.4669 23.0332 27.3602 23.7354 27.1413 24.406C26.8996 25.1328 26.2176 25.6214 25.4517 25.6165H25.4486Z" fill="#2C3E50"/>
<path d="M26.1293 19.8282C25.4071 19.8299 24.6894 19.7127 24.0052 19.4813C23.5194 19.3168 23.0526 19.1005 22.6131 18.8362C21.5518 18.1601 20.5773 17.3568 19.7111 16.4441C19.2696 15.9965 18.7134 15.6792 18.1035 15.5269C17.785 15.4527 17.4604 15.4076 17.1337 15.3923C17.0131 15.3857 16.8779 15.3826 16.7421 15.3826C15.3992 15.4351 14.0613 15.5762 12.737 15.805L11.9157 15.9257C11.5559 15.9766 11.193 16.0028 10.8295 16.0042C10.7155 16.0042 10.6044 16.0042 10.4976 15.9957C9.96396 15.9833 9.43605 15.8825 8.93529 15.6976C7.47509 15.1404 6.46105 13.7985 6.32357 12.2417L6.3109 12.156C6.24684 11.698 6.23388 11.2343 6.27227 10.7735C6.28708 10.427 6.33109 10.0825 6.40383 9.74341C6.41952 9.67462 6.65546 8.67169 6.83952 8.06341C6.88176 7.92763 6.91012 7.83712 6.93848 7.75867C7.08391 7.37307 7.23357 7.02488 7.38745 6.71048C7.80139 5.87182 8.33723 5.09907 8.97753 4.41738C9.63603 3.7557 10.4188 3.23069 11.2809 2.87255C11.7094 2.6845 12.1491 2.52327 12.5976 2.38979C13.0713 2.24798 13.5631 2.12488 14.0652 2.0247C14.6234 1.90945 15.2081 1.79841 15.7995 1.69401C16.167 1.62582 16.5496 1.56367 16.9316 1.50755C17.3763 1.43936 17.8211 1.38324 18.2718 1.33315C18.7075 1.28729 19.1287 1.24927 19.5506 1.22996C19.5765 1.22996 19.6109 1.22513 19.6477 1.22332C19.8812 1.21307 20.1154 1.20703 20.3423 1.20703C20.5233 1.20703 20.6989 1.21367 20.8703 1.2197C21.3186 1.23499 21.7656 1.27771 22.2087 1.34763C23.521 1.553 24.7891 1.97837 25.9598 2.60582C26.2778 2.76876 26.5868 2.94496 26.8921 3.13988C27.321 3.39815 27.7922 3.71999 28.306 4.10539C28.4496 4.211 28.5908 4.31962 28.7381 4.43548C29.0122 4.64357 29.2724 4.86934 29.5171 5.11134C30.5677 6.07799 31.3302 7.31651 31.7203 8.68979C31.9619 9.5599 32.1235 10.4503 32.2031 11.3498C32.2459 11.8163 32.2694 12.2417 32.2755 12.6563C32.2845 12.8475 32.2845 13.0588 32.2845 13.276C32.2826 13.527 32.2658 13.7777 32.2344 14.0267C32.191 14.5149 32.0926 14.9967 31.9412 15.4629C31.7416 16.1125 31.4554 16.7321 31.0903 17.3052C30.4262 18.3163 29.4576 19.0898 28.3247 19.5138C27.6096 19.716 26.8706 19.8217 26.1275 19.8282H26.1293Z" fill="#2C3E50"/>
<path d="M21.8268 16.77C21.4285 17.808 20.7526 20.3183 22.6294 21.7243C24.0342 22.778 24.6207 23.423 24.8669 24.0174C24.9543 24.2548 25.1804 24.4125 25.4333 24.4125C25.6862 24.4125 25.9123 24.2548 25.9996 24.0174C26.1762 23.472 26.2609 22.901 26.2501 22.3278C26.2501 20.5898 27.5052 19.1597 28.6578 18.0433C28.6638 18.0433 28.6699 18.0373 28.6759 18.0312L21.8268 16.77Z" fill="#DF4D60"/>
<path d="M31.0716 12.6727C31.0656 12.2623 31.0414 11.858 31.0052 11.4658C30.9311 10.6373 30.7816 9.8172 30.5587 9.01579C30.2248 7.8409 29.5684 6.78309 28.6638 5.96234C28.453 5.75529 28.2293 5.5618 27.994 5.38303C27.8552 5.27441 27.7225 5.17182 27.5837 5.06923C27.1311 4.7313 26.6845 4.42355 26.244 4.15803C25.9604 3.97699 25.6828 3.8201 25.3992 3.67527C24.3466 3.10994 23.2062 2.72639 22.0259 2.54079C21.6284 2.47783 21.2273 2.43954 20.825 2.42613C20.6681 2.4201 20.5052 2.41406 20.3423 2.41406C20.1311 2.41406 19.9138 2.4201 19.6966 2.43217C19.6664 2.43217 19.6363 2.4382 19.6061 2.4382C19.2078 2.4563 18.8095 2.49251 18.4052 2.53475C17.9707 2.58303 17.5423 2.63734 17.1078 2.70372C16.7397 2.75803 16.3716 2.81837 16.0095 2.88475C15.4302 2.98734 14.8569 3.09596 14.3018 3.21061C13.819 3.30717 13.3664 3.42182 12.944 3.54855C12.5434 3.66721 12.1504 3.8103 11.7673 3.97699C11.0499 4.27068 10.3977 4.70342 9.84832 5.25027C9.29159 5.84194 8.82587 6.51307 8.46642 7.24165C8.3216 7.53734 8.18884 7.85113 8.06815 8.17096C8.04401 8.23734 8.01987 8.31579 7.9897 8.41234C7.8147 8.99165 7.57935 9.99337 7.57935 9.99337C7.51868 10.2815 7.48234 10.5742 7.47073 10.8684C7.43696 11.2669 7.45114 11.668 7.51298 12.0632V12.0692C7.59207 13.1877 8.3087 14.1605 9.35349 14.5675C9.7385 14.7085 10.1444 14.7839 10.5544 14.7908C10.9516 14.808 11.3496 14.7877 11.7431 14.7304C13.5426 14.393 15.3677 14.2113 17.1983 14.1873C17.6009 14.2072 18.0008 14.2638 18.3931 14.3563C19.2118 14.5593 19.959 14.983 20.5535 15.5813C21.3545 16.4261 22.2541 17.1716 23.2328 17.802C24.6658 18.6715 26.4069 18.8721 28 18.3511C28.8439 18.0083 29.5651 17.4196 30.0699 16.6615C30.3818 16.1719 30.6254 15.642 30.794 15.0865C30.9206 14.6969 31.0016 14.2939 31.0354 13.8856C31.0617 13.6835 31.0758 13.48 31.0776 13.2761C31.0776 13.071 31.0776 12.8718 31.0716 12.6727Z" fill="#FB7B76"/>
<path d="M10.5604 10.2587C10.5574 11.2573 9.74864 12.0661 8.75005 12.0691H7.51298V12.063C7.45114 11.6679 7.43696 11.2667 7.47073 10.8682C7.49453 10.8632 7.51885 10.8612 7.54315 10.8622H8.75005C9.08332 10.8622 9.3535 10.592 9.3535 10.2587C9.3535 9.92545 9.62367 9.65527 9.95694 9.65527C10.2902 9.65527 10.5604 9.92545 10.5604 10.2587Z" fill="#FF5364"/>
<path d="M10.5604 13.8793V14.7302C10.5614 14.7505 10.5594 14.7708 10.5544 14.7905C10.1444 14.7837 9.73853 14.7082 9.35352 14.5673V13.8793C9.35352 13.5461 9.62369 13.2759 9.95697 13.2759C10.2902 13.2759 10.5604 13.5461 10.5604 13.8793Z" fill="#FF5364"/>
<path d="M14.181 12.6729H13.5776C12.5777 12.6729 11.7672 11.8623 11.7672 10.8625V10.2591C11.7672 9.25925 12.5777 8.44873 13.5776 8.44873H14.181C14.5143 8.44873 14.7844 8.7189 14.7844 9.05218C14.7844 9.38545 14.5143 9.65563 14.181 9.65563H13.5776C13.2443 9.65563 12.9741 9.9258 12.9741 10.2591V10.8625C12.9741 11.1958 13.2443 11.466 13.5776 11.466H14.181C14.5143 11.466 14.7844 11.7361 14.7844 12.0694C14.7844 12.4027 14.5143 12.6729 14.181 12.6729Z" fill="#FF5364"/>
<path d="M11.1638 7.84466C11.1638 8.17793 10.8936 8.44811 10.5603 8.44811H8.1948C8.1248 8.44835 8.05531 8.43609 7.98962 8.4119C8.0198 8.31535 8.04393 8.2369 8.06807 8.17052C8.18876 7.85069 8.32152 7.5369 8.46635 7.24121H10.5603C10.8936 7.24121 11.1638 7.51138 11.1638 7.84466Z" fill="#FF5364"/>
<path d="M14.181 6.63799C14.181 6.97127 13.9108 7.24144 13.5776 7.24144C12.579 7.23846 11.7702 6.42969 11.7672 5.4311V3.97679C12.1503 3.81009 12.5433 3.66701 12.9439 3.54834C12.9632 3.60885 12.9734 3.6719 12.9741 3.73541V5.4311C12.9741 5.76437 13.2443 6.03455 13.5776 6.03455C13.9108 6.03455 14.181 6.30472 14.181 6.63799Z" fill="#FF5364"/>
<path d="M16.5948 11.4654H15.9914C15.6581 11.4654 15.3879 11.1952 15.3879 10.862C15.3879 10.5287 15.6581 10.2585 15.9914 10.2585H16.5948C16.9281 10.2585 17.1983 9.98835 17.1983 9.65507V8.44817C17.1983 8.1149 17.4685 7.84473 17.8017 7.84473C18.135 7.84473 18.4052 8.1149 18.4052 8.44817V9.65507C18.4052 10.6549 17.5947 11.4654 16.5948 11.4654Z" fill="#FF5364"/>
<path d="M19.6121 8.44839C19.2788 8.44839 19.0086 8.17822 19.0086 7.84495V7.2415C19.0086 6.90822 18.7385 6.63805 18.4052 6.63805H17.1983C16.865 6.63805 16.5948 6.90822 16.5948 7.2415V7.84495C16.5948 8.17822 16.3247 8.44839 15.9914 8.44839C15.6581 8.44839 15.3879 8.17822 15.3879 7.84495V7.2415C15.3879 6.24167 16.1985 5.43115 17.1983 5.43115H18.4052C19.405 5.43115 20.2155 6.24167 20.2155 7.2415V7.84495C20.2155 8.17822 19.9453 8.44839 19.6121 8.44839Z" fill="#FF5364"/>
<path d="M17.1982 3.01741V3.62085C17.1982 3.95413 16.9281 4.2243 16.5948 4.2243C16.2615 4.2243 15.9913 3.95413 15.9913 3.62085V3.01741C15.991 2.97252 15.9971 2.92781 16.0094 2.88465C16.3715 2.81827 16.7396 2.75792 17.1077 2.70361C17.1683 2.79694 17.1998 2.90615 17.1982 3.01741Z" fill="#FF5364"/>
<path d="M19.612 2.4742V3.62075C19.612 3.95402 19.3419 4.2242 19.0086 4.2242C18.6753 4.2242 18.4052 3.95402 18.4052 3.62075V2.53454C18.8095 2.4923 19.2077 2.45609 19.606 2.43799C19.6109 2.44939 19.613 2.46182 19.612 2.4742Z" fill="#FF5364"/>
<path d="M23.2327 5.43095C23.2327 5.76423 22.9626 6.0344 22.6293 6.0344H21.4224C21.0891 6.0344 20.819 5.76423 20.819 5.43095V2.46802C20.818 2.45367 20.82 2.43928 20.825 2.42578C21.2273 2.43919 21.6283 2.47748 22.0259 2.54044V4.8275H22.6293C22.9626 4.8275 23.2327 5.09768 23.2327 5.43095Z" fill="#FF5364"/>
<path d="M18.4051 13.2758V14.2413C18.4044 14.2798 18.4004 14.3182 18.3931 14.356C18.0008 14.2635 17.6008 14.2069 17.1982 14.187V13.2758C17.1982 12.9425 17.4684 12.6724 17.8017 12.6724C18.135 12.6724 18.4051 12.9425 18.4051 13.2758Z" fill="#FF5364"/>
<path d="M22.0258 13.276H21.4224C20.4226 13.276 19.6121 12.4655 19.6121 11.4657V10.8622C19.6121 10.529 19.8822 10.2588 20.2155 10.2588C20.5488 10.2588 20.819 10.529 20.819 10.8622V11.4657C20.819 11.799 21.0891 12.0691 21.4224 12.0691H22.0258C22.3591 12.0691 22.6293 12.3393 22.6293 12.6726C22.6293 13.0059 22.3591 13.276 22.0258 13.276Z" fill="#FF5364"/>
<path d="M24.4397 10.8619H23.8362C22.8364 10.8619 22.0259 10.0514 22.0259 9.05156C22.0259 8.05173 22.8364 7.24121 23.8362 7.24121H24.4397C24.7729 7.24121 25.0431 7.51138 25.0431 7.84466C25.0431 8.17793 24.7729 8.44811 24.4397 8.44811H23.8362C23.5029 8.44811 23.2328 8.71828 23.2328 9.05156C23.2328 9.38483 23.5029 9.655 23.8362 9.655H24.4397C24.7729 9.655 25.0431 9.92518 25.0431 10.2585C25.0431 10.5917 24.7729 10.8619 24.4397 10.8619Z" fill="#FF5364"/>
<path d="M26.25 4.22443V6.03478C26.25 6.36805 25.9798 6.63823 25.6465 6.63823C25.3133 6.63823 25.0431 6.36805 25.0431 6.03478V4.22443C25.0436 3.98734 25.1829 3.7725 25.3991 3.67529C25.6827 3.82012 25.9603 3.97702 26.2439 4.15805C26.2492 4.17976 26.2513 4.20213 26.25 4.22443Z" fill="#FF5364"/>
<path d="M28.6638 5.96195V7.24126C28.6608 8.23985 27.852 9.04863 26.8535 9.05161C26.5202 9.05161 26.25 8.78144 26.25 8.44816C26.25 8.11489 26.5202 7.84471 26.8535 7.84471C27.1867 7.84471 27.4569 7.57454 27.4569 7.24126V5.43695C27.4573 5.30362 27.5019 5.17418 27.5836 5.06885C27.7224 5.17143 27.8552 5.27402 27.994 5.38264C28.2293 5.56141 28.453 5.7549 28.6638 5.96195Z" fill="#FF5364"/>
<path d="M25.6466 13.8795H25.0431C24.7099 13.8795 24.4397 13.6093 24.4397 13.276C24.4397 12.9428 24.7099 12.6726 25.0431 12.6726H25.6466C25.9799 12.6726 26.25 12.4024 26.25 12.0691V10.8622C26.25 10.529 26.5202 10.2588 26.8535 10.2588C27.1868 10.2588 27.4569 10.529 27.4569 10.8622V12.0691C27.4569 13.069 26.6464 13.8795 25.6466 13.8795Z" fill="#FF5364"/>
<path d="M27.4568 15.6899C27.4568 16.0231 27.1866 16.2933 26.8534 16.2933H25.043C24.7097 16.2933 24.4396 16.5635 24.4396 16.8968V18.1037C24.4393 18.1845 24.4229 18.2646 24.3913 18.339C23.987 18.202 23.5985 18.0219 23.2327 17.8019V16.8968C23.2356 15.8982 24.0444 15.0894 25.043 15.0864H26.8534C27.0134 15.0864 27.1669 15.15 27.2801 15.2632C27.3932 15.3763 27.4568 15.5298 27.4568 15.6899Z" fill="#FF5364"/>
<path d="M31.0716 12.6722H29.2673C28.934 12.6722 28.6638 12.4021 28.6638 12.0688C28.6638 11.7355 28.934 11.4653 29.2673 11.4653H31.0052C31.0414 11.8576 31.0656 12.2619 31.0716 12.6722Z" fill="#FF5364"/>
<path d="M31.0354 13.8853C31.0016 14.2936 30.9206 14.6965 30.794 15.0861H29.2673C28.934 15.0861 28.6638 14.816 28.6638 14.4827C28.6638 14.1494 28.934 13.8793 29.2673 13.8793H30.9509C30.9792 13.878 31.0075 13.8801 31.0354 13.8853Z" fill="#FF5364"/>
</g>
<defs>
<clipPath id="clip0_24_861">
<rect width="35" height="35" fill="white"/>
</clipPath>
</defs>
</svg>
