<svg width="18" height="14" viewBox="0 0 18 14" fill="none" xmlns="http://www.w3.org/2000/svg">
<path d="M6.62614 5.83985L9.56605 6.53528C11.7135 7.04332 13.9554 6.33162 15.4168 4.67797L17.6808 1.61175L17.0023 1.01216C16.7775 0.813495 16.4342 0.834659 16.2355 1.05948L14.1566 3.41189C13.0953 4.61283 11.4592 5.13219 9.89954 4.76326L6.95964 4.06784C6.24533 3.89888 5.50283 3.88699 4.7835 4.03307L0.435269 4.91605C0.141222 4.97575 -0.0487268 5.26252 0.0109686 5.55656L0.191144 6.44387L5.07175 5.81503C5.58204 5.71146 6.11947 5.72001 6.62614 5.83985Z" fill="#F7F9FA"/>
<path d="M17.8165 1.73173L17.6808 1.61182L15.2421 4.3713C13.8244 5.97555 11.6495 6.66602 9.56607 6.17316L6.62616 5.47773C6.11949 5.35789 5.58202 5.34934 5.07176 5.45291L0.191162 6.4439L0.227197 6.62137C0.286893 6.91541 0.573662 7.10536 0.867709 7.04567L5.21594 6.16275C5.62699 6.07929 6.05129 6.08608 6.45945 6.18262L9.39932 6.87804C11.7388 7.43144 14.1929 6.65237 15.7849 4.85097L17.8638 2.49856C18.0625 2.27374 18.0413 1.9304 17.8165 1.73173Z" fill="#DCE6EB"/>
<path d="M14.7404 7.69057C14.5904 7.69057 14.4688 7.56896 14.4688 7.41895V6.07359H9.32595V7.41895C9.32595 7.56896 9.20434 7.69057 9.05433 7.69057C8.90432 7.69057 8.78271 7.56896 8.78271 7.41895V3.79712C8.78271 3.04822 9.39197 2.43896 10.1409 2.43896H13.654C14.4029 2.43896 15.0121 3.04822 15.0121 3.79712V7.41895C15.012 7.56896 14.8904 7.69057 14.7404 7.69057ZM9.32595 5.53032H14.4688V3.79712C14.4688 3.34779 14.1033 2.98223 13.6539 2.98223H10.1408C9.6915 2.98223 9.32595 3.34779 9.32595 3.79712V5.53032Z" fill="#B9C3CD"/>
<path d="M16.8731 12.5811H16.1892C16.0391 12.5811 15.9175 12.4595 15.9175 12.3095V10.5999H2.0825V12.0379H2.49478C2.64479 12.0379 2.7664 12.1595 2.7664 12.3095C2.7664 12.4595 2.64479 12.5811 2.49478 12.5811H1.81089C1.66087 12.5811 1.53927 12.4595 1.53927 12.3095V10.5998H1.44874C1.29873 10.5998 1.17712 10.4782 1.17712 10.3282C1.17712 10.1782 1.29873 10.0566 1.44874 10.0566H1.53927V8.5055C1.53927 8.35549 1.66087 8.23389 1.81089 8.23389C1.9609 8.23389 2.0825 8.35549 2.0825 8.5055V10.0566H15.9175V8.5055C15.9175 8.35549 16.0391 8.23389 16.1891 8.23389C16.3391 8.23389 16.4607 8.35549 16.4607 8.5055V10.0566H16.5513C16.7013 10.0566 16.8229 10.1782 16.8229 10.3282C16.8229 10.4782 16.7013 10.5998 16.5513 10.5998H16.4607V12.0378H16.873C17.023 12.0378 17.1446 12.1594 17.1446 12.3094C17.1447 12.4595 17.0231 12.5811 16.8731 12.5811Z" fill="#B9C3CD"/>
<path d="M17.6378 8.50532L17.2756 7.05664H0.271617C0.121605 7.05664 0 7.17825 0 7.32826V8.14314L17.6378 8.50532Z" fill="#D79B8C"/>
<path d="M17.7284 7.05664H17.2757V7.87153C17.2757 8.02154 17.1541 8.14314 17.0041 8.14314H0V8.59585C0 8.74586 0.121605 8.86747 0.271617 8.86747H17.7283C17.8784 8.86747 18 8.74586 18 8.59585V7.32826C18 7.17825 17.8784 7.05664 17.7284 7.05664Z" fill="#C38778"/>
<path d="M1.81085 12.0379C1.81085 11.9556 1.69646 11.6171 1.50408 11.5297C1.4292 11.5071 1.34989 11.4946 1.26758 11.4946C0.817549 11.4946 0.452698 11.8595 0.452698 12.3095C0.452698 12.3918 0.465143 12.4711 0.487819 12.546C0.576342 12.7404 0.913667 12.8528 0.995932 12.8528C1.446 12.8527 1.81085 12.4879 1.81085 12.0379Z" fill="#5F6C75"/>
<path d="M1.50412 11.5293C1.52679 11.6042 1.53924 11.6835 1.53924 11.7658C1.53924 12.2158 1.17439 12.5807 0.72435 12.5807C0.642049 12.5807 0.562737 12.5682 0.487854 12.5456C0.589245 12.8802 0.89985 13.1239 1.26762 13.1239C1.71765 13.1239 2.08251 12.7591 2.08251 12.3091C2.08251 11.9413 1.8388 11.6307 1.50412 11.5293Z" fill="#4E5A61"/>
<path d="M16.1891 12.0379C16.1891 11.9556 16.0748 11.6171 15.8824 11.5297C15.8075 11.5071 15.7282 11.4946 15.6459 11.4946C15.1958 11.4946 14.831 11.8595 14.831 12.3095C14.831 12.3918 14.8434 12.4711 14.8661 12.546C14.9546 12.7404 15.292 12.8528 15.3742 12.8528C15.8243 12.8527 16.1891 12.4879 16.1891 12.0379Z" fill="#5F6C75"/>
<path d="M15.8824 11.5293C15.905 11.6042 15.9175 11.6835 15.9175 11.7658C15.9175 12.2158 15.5526 12.5807 15.1026 12.5807C15.0203 12.5807 14.941 12.5682 14.8661 12.5456C14.9675 12.8802 15.2781 13.1239 15.6459 13.1239C16.0959 13.1239 16.4607 12.7591 16.4607 12.3091C16.4607 11.9413 16.217 11.6307 15.8824 11.5293Z" fill="#4E5A61"/>
</svg>
