<svg width="44" height="44" viewBox="0 0 44 44" fill="none" xmlns="http://www.w3.org/2000/svg">
<g clip-path="url(#clip0_24_259)">
<path d="M36.7272 43.9997H29.4634C28.7106 43.9997 28.1004 43.3895 28.1004 42.6368V30.9606C28.1004 30.745 28.2751 30.5703 28.4906 30.5703H37.6998C37.9153 30.5703 38.09 30.745 38.09 30.9606V42.6368C38.0902 43.3895 37.4799 43.9997 36.7272 43.9997Z" fill="#E5F9F6"/>
<path d="M37.7 30.5703H33.1867V43.9997H36.7273C37.4801 43.9997 38.0903 43.3896 38.0903 42.6368V30.9606C38.0903 30.745 37.9156 30.5703 37.7 30.5703Z" fill="#D6E5E2"/>
<path d="M28.1006 34.73V42.6373C28.1006 43.3901 28.7108 44.0003 29.4636 44.0003H36.7274C37.4801 44.0003 38.0904 43.3901 38.0904 42.6373V34.73H28.1006V34.73Z" fill="#A36C22"/>
<path d="M16.583 13.342C16.583 13.342 17.0842 12.837 17.0842 10.4964C17.0842 7.09935 15.8294 4.65039 15.8294 4.65039H11.5065C11.5065 4.65039 10.2517 7.09935 10.2517 10.4964C10.2517 12.837 10.7528 13.342 10.7528 13.342L6.89474 16.4138C6.2723 16.9094 5.90973 17.6616 5.90973 18.4573V42.453C5.90973 43.3071 6.60213 43.9995 7.45626 43.9995H19.8796C20.7337 43.9995 21.4261 43.3071 21.4261 42.453V18.4573C21.4261 17.6616 21.0635 16.9094 20.4411 16.4138L16.583 13.342Z" fill="#A36C22"/>
<path d="M20.441 16.4138L16.583 13.342C16.583 13.342 17.0841 12.837 17.0841 10.4964C17.0841 7.09935 15.8293 4.65039 15.8293 4.65039H12.1305C12.1305 7.9729 12.1304 11.8598 12.1304 11.8731C12.1218 13.8712 13.0282 14.4558 14.5914 15.7004L15.4875 16.4139C16.11 16.9095 16.4725 17.6617 16.4725 18.4573V43.9996H19.8795C20.7336 43.9996 21.426 43.3072 21.426 42.4531V18.4573C21.426 17.6616 21.0635 16.9094 20.441 16.4138Z" fill="#6F2205"/>
<path d="M21.4266 20.0103H5.90973V40.7529H21.4266V20.0103Z" fill="#4A4256"/>
<path d="M21.4261 20.0103H16.4725V40.7529H21.4261V20.0103Z" fill="#352F3F"/>
<path d="M17.1795 25.8065C14.8108 24.7497 12.5304 24.7473 10.1561 25.8066C9.8756 25.9317 9.54569 25.8238 9.38911 25.5596C9.19257 25.2281 8.99603 24.8965 8.79941 24.5649C8.61516 24.2541 8.74131 23.8524 9.06925 23.7006C12.1239 22.2869 15.2104 22.2863 18.2663 23.7006C18.5943 23.8524 18.7205 24.2541 18.5362 24.5649C18.3397 24.8964 18.1431 25.228 17.9466 25.5596C17.79 25.8238 17.46 25.9316 17.1795 25.8065Z" fill="#EFEFEF"/>
<path d="M13.6674 33.6096C15.8041 33.6096 17.5363 32.4221 17.5363 30.9574C17.5363 29.4926 15.8041 28.3052 13.6674 28.3052C11.5307 28.3052 9.79852 29.4926 9.79852 30.9574C9.79852 32.4221 11.5307 33.6096 13.6674 33.6096Z" fill="#EFEFEF"/>
<path d="M17.6808 37.5494H9.65472C9.28794 37.5494 8.9906 37.2521 8.9906 36.8853C8.9906 36.5185 9.28794 36.2212 9.65472 36.2212H17.6808C18.0475 36.2212 18.3449 36.5185 18.3449 36.8853C18.3449 37.2521 18.0475 37.5494 17.6808 37.5494Z" fill="#EFEFEF"/>
<path d="M17.0815 10.261C17.0257 6.98711 15.8293 4.65039 15.8293 4.65039H11.5064C11.5064 4.65039 10.3102 6.98703 10.2543 10.261H17.0815Z" fill="#4A4256"/>
<path d="M17.0815 10.261C17.0291 7.19207 15.9748 4.9467 15.8428 4.67755C15.841 4.67377 15.84 4.67179 15.8385 4.66878C15.8366 4.66474 15.8342 4.65993 15.8329 4.65735C15.8306 4.6528 15.8293 4.65039 15.8293 4.65039H12.1305C12.1305 6.63443 12.1305 8.81938 12.1304 10.261H17.0815Z" fill="#352F3F"/>
<path d="M16.2705 5.38836H11.0653C10.8351 5.38836 10.6484 5.2017 10.6484 4.97147V0.416882C10.6484 0.186656 10.8351 0 11.0653 0H16.2705C16.5008 0 16.6874 0.186656 16.6874 0.416882V4.97139C16.6874 5.2017 16.5008 5.38836 16.2705 5.38836Z" fill="#4A4256"/>
<path d="M16.6873 1.68066H10.6484V3.09983H16.6873V1.68066Z" fill="#EFEFEF"/>
<path d="M38.0903 42.6368V34.7295H33.1867V43.9998H36.7273C37.4801 43.9998 38.0903 43.3897 38.0903 42.6368Z" fill="#6F2205"/>
<path d="M36.7272 41.8335H29.4634C28.7106 41.8335 28.1004 41.8514 28.1004 41.0986V42.6373C28.1004 43.39 28.7106 44.0002 29.4634 44.0002H36.7272C37.4799 44.0002 38.0902 43.39 38.0902 42.6373V41.0986C38.0902 41.8514 37.4799 41.8335 36.7272 41.8335Z" fill="#D7E0DC"/>
<path d="M36.7273 41.8334H33.1867V44.0001H36.7273C37.1776 44.0001 37.5758 43.7808 37.8239 43.4441C37.8609 43.3939 37.8957 43.342 37.9257 43.2869C37.9467 43.2483 37.9659 43.2085 37.9831 43.1677C38.0039 43.1187 38.0209 43.0676 38.0358 43.0158C38.0565 42.9442 38.0717 42.8704 38.0804 42.7945C38.0863 42.7429 38.0902 42.6905 38.0902 42.6373V41.0986C38.0903 41.8514 37.4801 41.8334 36.7273 41.8334Z" fill="#C9D1CD"/>
<path d="M18.2664 23.7013C17.6695 23.425 17.0713 23.2035 16.4725 23.0352V25.5226C16.7074 25.6071 16.943 25.7016 17.1795 25.8072C17.46 25.9323 17.79 25.8244 17.9466 25.5602C18.1431 25.2286 18.3396 24.8971 18.5363 24.5655C18.7206 24.2547 18.5944 23.853 18.2664 23.7013Z" fill="#DEE0E2"/>
<path d="M16.4725 29.1323V32.7838C17.1315 32.3082 17.5366 31.6658 17.5366 30.9581C17.5366 30.2504 17.1314 29.6079 16.4725 29.1323Z" fill="#DEE0E2"/>
</g>
<defs>
<clipPath id="clip0_24_259">
<rect width="44" height="44" fill="white"/>
</clipPath>
</defs>
</svg>
